<svg width="741" height="665" viewBox="0 0 741 665" fill="none" xmlns="http://www.w3.org/2000/svg">
<path d="M567.039 460.063C542.652 348.914 502.394 277.591 399.426 183.458C347.555 138.203 287.168 102.722 221.748 78.1026C124.199 41.1737 18.9084 25.6057 -86.3822 32.8466C-193.221 39.3635 -293.093 76.2923 -343.803 129.875C-371.287 158.477 -392.577 191.786 -406.125 228.352C-405.738 228.352 -424.706 271.074 -426.642 342.035C-431.287 410.462 -409.222 515.456 -319.802 575.556C-233.48 636.018 -109.221 642.173 -22.511 608.14C68.8442 575.556 104.07 500.612 106.393 466.218C116.844 400.325 92.8442 345.656 51.8118 315.244C10.0052 284.47 -43.0272 274.332 -103.027 277.591C-43.4144 271.798 11.1665 279.763 55.6828 310.537C100.199 341.311 126.135 399.239 114.909 467.666C112.586 503.871 75.0377 582.797 -19.4143 616.105C-108.834 651.224 -240.06 647.966 -329.093 585.331C-421.609 523.421 -454.9 422.41 -450.642 341.673C-451.416 259.126 -422.771 183.82 -358.512 122.634C-293.093 60.3622 -195.544 31.7604 -87.5435 25.2436C18.9085 18.0027 125.748 33.5707 224.458 70.8617C291.039 95.8429 352.2 132.048 404.845 178.028C509.362 272.522 548.072 348.552 567.039 460.063Z" fill="#FFE86F" fill-opacity="0.15"/>
<path d="M-24.8337 431.823C-23.6724 430.013 -22.8982 427.841 -22.8982 425.668C-22.8982 425.668 1.87607 427.841 15.4245 416.979C3.42446 420.238 -8.57561 421.686 -20.9627 421.686C-20.9627 421.686 19.6826 409.376 28.9729 378.24C10.3922 408.652 -24.0595 418.065 -24.0595 418.065C-24.0595 418.065 -10.5111 407.928 -0.83366 385.119C-13.6079 405.394 -19.0272 407.928 -26.7692 410.462C-25.995 399.963 -23.2853 389.464 -19.8014 379.688C-9.34979 352.535 30.5213 325.381 60.3278 357.966C82.0053 381.499 55.6826 412.635 44.8439 420.962C27.4245 433.271 0.327637 437.978 -24.8337 431.823Z" fill="#FFE86F" fill-opacity="0.15"/>
<path d="M-36.0592 514.008C-51.9303 498.078 -67.8013 470.563 -54.2528 430.375C-54.2528 430.375 -7.80101 429.289 6.13454 483.596C20.0701 537.903 -13.9946 566.505 -13.9946 566.505C-14.7688 553.471 -24.8333 525.232 -36.0592 514.008ZM-6.63973 515.456C-5.47844 521.249 -1.60744 522.335 -1.60744 522.335C-1.60744 522.335 11.1668 449.926 -49.9948 437.616C-49.9948 437.616 -51.1561 463.322 -46.1238 473.821C-41.0915 484.32 -17.8656 508.94 -16.7043 524.146C-14.7688 500.612 -13.2204 481.786 -25.9947 470.2C-38.7689 458.977 -43.4141 445.943 -42.6399 443.047C-34.1237 449.202 3.03774 472.373 -6.63973 515.456Z" fill="#FFE86F" fill-opacity="0.15"/>
<path d="M6.9081 468.028C52.9727 511.111 84.3277 489.026 84.3277 489.026C84.3277 489.026 78.9083 527.403 49.1018 522.697C17.7469 517.628 6.9081 468.028 6.9081 468.028Z" fill="#FFE86F" fill-opacity="0.15"/>
<path d="M-14.3817 439.065C5.36031 443.047 25.8766 444.133 44.4573 435.806C63.038 427.479 76.5864 412.273 76.1994 396.705C101.748 410.101 102.135 471.287 64.5864 482.148C27.0378 493.01 -14.3817 439.065 -14.3817 439.065Z" fill="#FFE86F" fill-opacity="0.15"/>
<path d="M339.426 120.824C367.684 128.789 488.071 147.254 531.814 73.0338C553.878 34.6568 587.169 21.261 567.039 6.77911C612.717 6.77912 646.008 87.8778 560.459 134.944C647.556 101.274 626.266 -21.0986 740.459 3.15865C682.008 7.14117 718.395 98.3772 594.911 144.719C509.749 176.58 428.845 160.287 339.426 120.824Z" fill="#FFE86F" fill-opacity="0.15"/>
<path d="M84.7147 334.794C114.521 367.741 124.586 373.171 156.715 407.566C159.812 402.497 164.457 398.515 169.876 395.98C140.844 379.688 119.554 365.206 84.7147 334.794Z" fill="#FFE86F" fill-opacity="0.15"/>
<path d="M159.812 414.445C162.909 402.859 175.683 396.342 188.07 399.239C200.458 402.135 207.425 414.082 204.328 425.668C201.232 437.253 188.457 443.77 176.07 440.874C163.683 437.616 156.715 426.03 159.812 414.445ZM193.877 425.306C191.167 424.582 188.457 426.03 188.07 428.564C187.683 431.099 188.845 433.633 191.554 433.995C194.264 434.719 196.974 433.271 197.361 430.737C198.135 428.202 196.587 425.668 193.877 425.306ZM166.78 430.013C166.78 430.013 165.232 417.703 173.361 411.186C182.651 403.221 195.812 407.928 195.812 407.928C192.716 405.393 180.716 399.239 170.651 407.204C163.683 412.996 162.135 422.41 166.78 430.013Z" fill="#FFE86F" fill-opacity="0.15"/>
<path d="M-120.834 275.418C-120.834 275.418 -10.124 295.331 90.9087 224.732C155.167 179.476 159.038 82.4472 77.7473 66.5171C21.231 55.2936 -27.1563 92.9466 -19.0272 138.202C-10.5111 184.907 50.6504 206.267 80.8441 168.977C52.1988 200.837 -1.22068 182.734 5.74709 142.547C11.9407 106.704 56.4569 102.722 76.1989 109.601C112.199 121.91 118.006 160.649 79.2957 208.802C37.4891 261.299 -74.7694 280.849 -120.834 275.418Z" fill="#FFE86F" fill-opacity="0.15"/>
<path d="M510.91 528.852C541.104 510.75 547.298 490.837 547.298 490.837C544.201 511.112 534.911 532.473 524.459 543.696C499.685 569.764 478.394 548.403 510.91 528.852ZM359.942 629.139C364.587 620.45 371.942 620.45 375.426 623.347C380.071 627.329 370.781 633.846 366.136 632.398C370.394 637.829 382.781 637.466 388.2 633.122C402.136 623.347 399.426 608.141 396.717 592.573C394.007 577.004 401.749 565.419 423.813 558.902C430.007 557.816 434.652 552.747 434.652 546.593C434.652 546.593 423.426 552.747 419.555 545.506C416.846 538.989 420.329 531.749 427.297 529.214C428.459 528.852 429.233 528.49 430.394 528.49C438.136 528.128 460.588 535.731 495.427 509.664C474.91 519.439 454.394 520.163 440.459 505.681C423.813 488.665 424.975 468.028 439.684 455.719C454.394 443.771 484.975 449.564 483.426 469.114C473.749 466.58 462.523 473.097 467.168 482.51C471.814 491.923 479.556 492.285 492.33 488.303C505.104 484.32 534.136 475.631 543.427 431.823C549.233 402.86 543.814 382.585 537.62 357.966C537.62 357.966 560.459 406.118 567.427 443.047C574.007 477.079 571.298 487.941 568.201 511.112C564.33 542.248 541.491 562.523 538.007 582.435C534.136 601.262 541.491 620.812 557.362 633.122C544.201 638.915 510.91 650.862 503.168 611.399C492.717 624.433 498.91 638.915 488.459 641.811C479.555 644.345 474.91 625.881 481.878 616.468C472.975 621.898 466.007 634.208 468.33 643.983C470.652 652.672 459.426 664.982 450.523 647.604C444.717 655.569 438.91 663.534 427.297 664.62C419.168 665.344 410.652 655.931 413.749 645.431C403.684 657.017 383.555 664.982 368.845 657.741C357.62 651.586 356.071 636.38 359.942 629.139ZM441.62 599.089C454.394 592.935 466.394 585.332 477.233 576.642C478.007 577.004 478.781 577.729 479.555 578.091C472.975 585.332 463.297 595.469 453.233 605.968C463.297 597.641 472.975 588.952 481.491 579.177C482.265 579.539 483.426 579.901 484.588 580.263C478.781 589.676 471.426 601.986 467.168 608.141C472.975 601.262 481.491 590.038 487.685 581.349C488.846 581.711 490.007 581.711 491.168 581.711L482.652 603.796L494.652 581.711C495.814 581.711 497.362 581.711 498.523 581.349C498.523 588.59 496.975 595.831 493.878 602.71C498.523 597.641 501.233 587.504 502.007 580.625C503.943 579.901 505.878 579.177 507.814 578.453C509.362 585.332 508.975 592.21 506.265 598.727C510.136 591.848 512.459 583.883 512.846 575.918C514.007 575.194 517.878 572.298 518.652 571.574C517.878 577.729 517.878 588.952 523.298 595.831C517.878 583.521 522.523 575.194 525.233 568.677C527.943 562.161 536.846 542.61 545.362 520.887C553.878 499.164 556.588 468.752 551.556 447.753C552.33 478.528 535.298 507.129 506.652 522.335C457.491 549.127 450.136 534.283 450.136 534.283C450.136 534.283 454.781 543.696 475.297 540.8C474.523 541.162 474.136 541.886 473.362 542.61C464.459 546.23 454.781 548.041 445.104 547.679C452.846 549.489 462.523 548.403 469.491 547.679C468.717 549.127 467.943 550.575 467.168 552.023C454.394 556.006 443.942 559.626 436.588 561.436C447.039 559.626 458.265 557.816 466.781 556.006C466.781 557.816 466.781 559.626 467.555 561.074C457.878 566.867 447.813 571.936 436.975 575.918C447.813 573.022 458.652 569.402 468.717 564.695C469.104 565.781 469.878 566.867 470.265 567.591C459.813 575.918 448.588 583.521 436.588 590.038C448.975 584.245 460.975 577.729 472.588 570.488C473.362 571.212 473.749 571.936 474.523 572.66C462.523 584.97 450.91 594.745 441.62 599.089Z" fill="#FFE86F" fill-opacity="0.15"/>
<path d="M257.361 551.661C257.361 548.403 254.651 545.868 251.168 545.868C247.684 545.868 244.974 548.403 244.974 551.661C244.974 554.92 247.684 557.454 251.168 557.454C254.651 557.454 257.361 554.92 257.361 551.661Z" fill="#FFE86F" fill-opacity="0.15"/>
<path d="M385.103 394.895C385.103 389.826 380.845 385.844 375.426 385.844C370.007 385.844 365.748 389.826 365.748 394.895C365.748 399.963 370.007 403.946 375.426 403.946C380.845 403.584 385.103 399.601 385.103 394.895Z" fill="#FFE86F" fill-opacity="0.15"/>
<path d="M101.748 153.047C101.748 146.168 95.9417 140.737 88.5868 140.737C81.232 140.737 75.4256 146.168 75.4256 153.047C75.4256 159.926 81.232 165.356 88.5868 165.356C95.9417 165.356 101.748 159.563 101.748 153.047Z" fill="#FFE86F" fill-opacity="0.15"/>
<path d="M88.5858 124.083C88.5858 118.652 83.9407 114.307 78.1342 114.307C72.3278 114.307 67.6826 118.652 67.6826 124.083C67.6826 129.513 72.3278 133.858 78.1342 133.858C83.9407 133.496 88.5858 129.151 88.5858 124.083Z" fill="#FFE86F" fill-opacity="0.15"/>
<path d="M62.651 115.394C62.651 111.049 58.78 107.429 54.1348 107.791C49.4896 107.791 45.6186 111.411 45.6186 115.756C45.6186 120.1 49.4896 123.359 54.1348 123.721C59.1671 123.359 62.651 119.738 62.651 115.394Z" fill="#FFE86F" fill-opacity="0.15"/>
<path d="M35.9408 121.187C35.9408 117.928 32.844 115.032 29.3601 115.032C25.8762 115.032 22.7795 117.928 22.7795 121.187C22.7795 124.445 25.8762 127.341 29.3601 127.341C33.2311 127.341 35.9408 124.807 35.9408 121.187Z" fill="#FFE86F" fill-opacity="0.15"/>
<path d="M19.6821 137.479C19.6821 134.583 17.3596 132.41 14.2628 132.41C11.166 132.41 8.84334 134.583 8.84334 137.479C8.84334 140.375 11.166 142.548 14.2628 142.548C17.3596 142.548 19.6821 140.375 19.6821 137.479Z" fill="#FFE86F" fill-opacity="0.15"/>
<path d="M244.974 72.3104C244.974 72.3104 319.684 104.171 385.49 75.2067C442.394 50.5875 433.878 15.1068 400.974 9.6761C377.748 6.05562 346.781 39.364 334.781 48.0532C316.974 61.811 277.877 82.8097 244.974 72.3104Z" fill="#FFE86F" fill-opacity="0.15"/>
<path d="M200.458 56.7425C200.458 56.7425 274.393 84.2581 311.555 55.6564C341.749 32.4853 322.394 12.9347 310.006 12.2106C292.974 10.7624 276.716 21.6239 265.877 35.3817C256.587 46.9672 225.619 60.725 200.458 56.7425Z" fill="#FFE86F" fill-opacity="0.15"/>
<path d="M160.973 44.7937C160.973 44.7937 211.296 59.6376 235.296 46.966C259.296 34.2944 244.973 20.5366 236.07 20.1746C224.07 19.4505 217.489 25.2432 210.135 32.4842C200.457 41.1733 178.78 46.966 160.973 44.7937Z" fill="#FFE86F" fill-opacity="0.15"/>
<path d="M292.2 94.7567C332.458 112.859 425.749 141.099 490.781 95.4809C547.297 55.6556 515.168 8.22736 485.749 8.22735C502.007 26.3297 478.007 35.3809 447.039 47.3285C406.007 63.2586 380.458 112.497 292.2 94.7567Z" fill="#FFE86F" fill-opacity="0.15"/>
<path d="M-83.2851 20.175C-83.2851 20.175 6.13454 14.3822 91.6832 29.5882C117.619 34.2948 152.071 41.1737 169.103 39.0015C190.006 36.4671 202.393 24.8816 193.103 15.1063C191.554 21.2611 176.845 32.1226 143.554 33.9328C161.361 31.0364 169.877 24.1575 163.296 13.6581C159.812 23.4334 130.393 29.5882 112.974 29.2262C130.78 27.4159 143.167 19.8129 135.425 10.7617C135.425 17.2786 95.1671 25.9677 80.0703 24.1575C98.2639 23.7954 110.264 17.6406 106.006 9.67559C94.0058 18.0027 73.4896 17.6406 54.9089 16.5545C38.2637 15.8304 -37.2204 15.1063 -83.2851 20.175Z" fill="#FFE86F" fill-opacity="0.15"/>
<path d="M429.232 365.568C369.619 334.794 338.264 364.12 253.103 385.481C159.425 408.652 84.7148 325.019 34.3921 297.503C87.4245 320.312 157.102 334.794 224.844 316.33C328.587 288.452 395.168 322.847 429.232 365.568Z" fill="#FFE86F" fill-opacity="0.15"/>
<path d="M382.315 149.605C459.241 214.331 482.591 257.047 547.816 313.649C582.86 343.824 621.277 358.243 662.718 350.759C704.16 343.275 728.277 303.654 713.864 274.999C713.322 299.679 686.599 334.353 644.341 334.264C677.99 326.077 698.185 299.339 693.337 282.176C685.247 303.603 652.354 325.167 622.589 326.636C647.591 316.338 668.727 306.231 669.757 283.339C658.492 303.473 619.17 321.004 591.417 316.935C620.957 311.489 639.651 299.328 641.579 285.455C630.819 293.963 610.031 310.216 563.72 293.286C514.213 274.702 453.987 196.825 382.315 149.605Z" fill="#FFE86F" fill-opacity="0.15"/>
<path d="M414.523 205.544C414.523 205.544 466.007 245.369 464.846 282.66C463.297 330.45 430.007 338.053 409.878 330.088C427.684 328.278 428.458 319.588 419.168 300.038C406.781 273.246 437.362 247.903 414.523 205.544Z" fill="#FFE86F" fill-opacity="0.15"/>
<path d="M341.361 147.978C341.361 147.978 421.491 194.32 415.297 248.989C409.103 302.572 372.329 309.813 350.652 299.676C368.071 297.141 370.394 293.521 357.619 266.729C340.587 230.163 376.587 191.786 341.361 147.978Z" fill="#FFE86F" fill-opacity="0.15"/>
<path d="M274.781 289.9C274.781 289.9 330.91 297.503 344.845 219.663C353.749 168.252 296.458 112.135 205.49 77.3785C267.039 113.583 278.264 163.184 274.781 196.492C269.361 248.989 304.974 272.884 274.781 289.9Z" fill="#FFE86F" fill-opacity="0.15"/>
<path d="M78.135 39.363C78.135 39.363 202.394 66.8787 243.813 132.409C275.168 182.01 275.555 250.075 202.393 279.763C154.006 299.675 106.78 288.452 83.5544 279.039C103.683 276.142 168.716 256.592 183.813 192.509C196.974 134.582 155.942 58.5516 61.1027 37.5528C66.5221 37.5528 72.3286 38.2769 78.135 39.363Z" fill="#FFE86F" fill-opacity="0.15"/>
<path d="M310.393 370.999C326.651 368.102 378.135 341.311 426.135 368.102C472.2 394.17 460.587 432.547 442.393 442.322C417.232 455.356 382.006 444.494 376.974 406.479C387.425 444.856 434.651 439.788 442.393 418.065C447.038 405.031 446.264 389.101 418.393 374.257C389.748 359.413 364.973 361.585 310.393 370.999Z" fill="#FFE86F" fill-opacity="0.15"/>
<path d="M16.1991 507.853C16.1991 507.853 11.1668 539.351 30.1345 550.575C49.1023 561.798 61.8766 544.058 66.5218 536.817C49.1024 538.627 32.0701 533.197 16.1991 507.853Z" fill="#FFE86F" fill-opacity="0.15"/>
<path d="M-103.801 277.229C-83.2852 274.694 -62.3819 275.419 -42.2528 279.763C-8.96233 287.004 22.3926 306.193 9.23128 331.898C4.58611 340.949 -7.02682 344.57 -16.7043 339.863C-17.4785 339.501 -18.6398 338.777 -19.4139 338.415C-28.7043 331.174 -28.7043 314.882 -9.34943 310.537C-17.4785 292.073 -51.5432 280.849 -103.801 277.229Z" fill="#FFE86F" fill-opacity="0.15"/>
<path d="M-9.73677 274.333C-9.73677 274.333 174.909 234.146 144.715 121.911C169.103 169.701 174.909 210.613 138.909 238.129C102.909 265.644 29.7472 273.609 -9.73677 274.333Z" fill="#FFE86F" fill-opacity="0.15"/>
<path d="M-65.0916 269.263C-19.4139 258.04 11.941 218.577 -20.5752 172.959C-43.8011 140.374 -43.8011 119.376 -34.8979 94.7564C-84.0593 105.98 -122.382 164.632 -81.3497 209.888C-56.5754 237.765 -56.9625 256.954 -65.0916 269.263ZM-44.1883 185.268C-58.1238 159.201 -75.5432 129.875 -46.8979 105.98C-71.2851 135.668 -50.7689 162.459 -39.9302 183.096C-18.6397 224.369 -27.1559 239.938 -47.6721 257.678C-27.543 239.576 -25.9946 218.939 -44.1883 185.268Z" fill="#FFE86F" fill-opacity="0.15"/>
</svg>
