<svg width="40" height="21" viewBox="0 0 40 21" fill="none" xmlns="http://www.w3.org/2000/svg">
<path d="M0.645105 19.8966C0.449843 20.0918 0.449843 20.4084 0.645105 20.6037C0.840366 20.7989 1.15695 20.7989 1.35221 20.6037L0.645105 19.8966ZM20.2486 1.00007L20.6022 0.646513C20.4069 0.451251 20.0903 0.451251 19.895 0.646513L20.2486 1.00007ZM39.145 20.6037C39.3402 20.7989 39.6568 20.7989 39.8521 20.6037C40.0473 20.4084 40.0473 20.0918 39.8521 19.8966L39.145 20.6037ZM1.35221 20.6037L20.6022 1.35362L19.895 0.646513L0.645105 19.8966L1.35221 20.6037ZM19.895 1.35362L39.145 20.6037L39.8521 19.8966L20.6022 0.646513L19.895 1.35362Z" fill="#5C5C5C"/>
</svg>
