<svg width="348" height="239" viewBox="0 0 348 239" fill="none" xmlns="http://www.w3.org/2000/svg">
<mask id="mask0_643_810" style="mask-type:alpha" maskUnits="userSpaceOnUse" x="0" y="0" width="348" height="239">
<rect width="348" height="239" fill="#FFD953"/>
</mask>
<g mask="url(#mask0_643_810)">
<path d="M22.2471 61.4907C31.2818 102.668 46.1963 129.091 84.343 163.965C103.56 180.731 125.931 193.875 150.168 202.996C186.306 216.677 225.314 222.444 264.321 219.762C303.902 217.348 340.901 203.666 359.687 183.816C369.869 173.219 377.757 160.88 382.776 147.333C382.633 147.333 389.66 131.506 390.377 105.216C392.098 79.8662 383.923 40.9691 350.796 18.7038C318.816 -3.69557 272.782 -5.97575 240.658 6.63229C206.814 18.7038 193.764 46.4684 192.903 59.2105C189.031 83.6218 197.923 103.875 213.124 115.142C228.612 126.543 248.259 130.298 270.487 129.091C248.402 131.237 228.182 128.286 211.69 116.886C195.198 105.485 185.589 84.0242 189.748 58.674C190.609 45.2612 204.519 16.0213 239.511 3.68147C272.638 -9.32895 321.254 -8.1218 354.238 15.0824C388.513 38.0183 400.846 75.44 399.268 105.351C399.555 135.932 388.943 163.83 365.137 186.498C340.901 209.568 304.762 220.164 264.751 222.579C225.314 225.261 185.733 219.494 149.164 205.678C124.497 196.424 101.839 183.011 82.3353 165.976C43.6149 130.969 29.2741 102.802 22.2471 61.4907Z" fill="#FFE86F"/>
<path d="M192.616 91.4014C186.88 75.5742 185.589 64.1734 180.57 44.993C178.849 40.0303 176.411 29.1659 168.093 18.9722C160.063 8.77846 146.152 2.34031 128.656 4.2181C101.408 7.03479 93.2342 26.2151 97.1062 43.2494C103.703 72.0869 152.032 66.9901 150.167 40.4327C148.877 21.5206 128.369 19.5087 117.614 26.8857C126.362 16.8261 148.303 19.777 157.625 39.3597C161.927 49.151 160.206 60.1495 153.322 68.4655C144.144 79.464 124.927 84.695 109.296 79.3298C93.2342 73.5623 85.7769 58.54 83.7692 48.3462C81.7615 37.616 83.9126 30.6413 83.9126 30.7755C85.2033 24.8738 87.7846 19.3746 91.6567 14.6801C97.9666 5.6935 112.738 -3.15895 129.373 -2.62244C146.009 -2.08593 162.07 6.23001 170.675 17.0944C179.566 27.9588 182.004 39.0914 183.725 44.1883C188.744 63.771 188.888 75.0377 192.616 91.4014Z" fill="#FFE86F"/>
<path d="M187.741 58.2715C180.857 16.5576 164.795 -4.09809 131.668 -10.268C150.598 -16.3038 165.082 -8.92671 172.253 -0.610767C180.283 8.77821 189.318 26.349 187.741 58.2715Z" fill="#FFE86F"/>
<path d="M194.768 37.4819C194.768 37.4819 219.577 -4.7684 261.453 -5.7073C258.871 -8.65812 254.999 -10.2677 250.984 -10.4018C255.86 -11.6089 267.189 -13.755 277.514 -9.19461C270.631 -15.3645 248.689 -22.3392 231.193 -10.8042C206.384 5.55946 198.64 27.2882 194.768 37.4819Z" fill="#FFE86F"/>
<path d="M187.741 58.2715C187.741 51.1627 185.589 18.9719 196.919 -3.02507C205.38 -19.2546 221.298 -14.8283 227.321 -12.9505C223.019 -10.6704 214.845 -5.17112 206.671 7.03454C196.489 22.7275 190.035 40.1642 187.741 58.2715Z" fill="#FFE86F"/>
<path d="M187.31 29.3003C187.31 29.3003 189.031 -5.70715 201.364 -14.1572C191.469 -16.1691 185.733 -12.6818 185.733 10.6565C182.148 -7.18256 178.849 -16.7056 158.772 -14.2913C170.675 -5.70714 181.431 1.6699 187.31 29.3003Z" fill="#FFE86F"/>
<path d="M241.519 71.9526C241.089 72.6232 240.802 73.428 240.802 74.2328C240.802 74.2328 231.624 73.428 226.604 77.4518C231.05 76.2447 235.496 75.7082 240.085 75.7082C240.085 75.7082 225.027 80.2685 221.585 91.8036C228.469 80.5368 241.232 77.0495 241.232 77.0495C241.232 77.0495 236.213 80.8051 232.627 89.2551C237.36 81.7439 239.368 80.8051 242.236 79.8662C241.949 83.7559 240.945 87.6456 239.654 91.267C235.782 101.327 221.011 111.386 209.969 99.3147C201.938 90.5964 211.69 79.0614 215.705 75.9764C222.159 71.4161 232.197 69.6724 241.519 71.9526Z" fill="#FFE86F"/>
<path d="M262.887 77.3179C274.646 86.841 281.817 87.1093 286.119 87.2434C281.673 86.5728 279.952 85.3656 275.363 82.9513C281.1 84.2926 287.123 84.2926 292.859 83.2196C287.983 83.4878 284.685 83.4878 280.239 81.61C297.018 67.929 312.649 75.0378 313.797 80.2688C314.657 83.8902 312.076 94.8887 295.297 97.0348C270.201 100.254 262.887 77.3179 262.887 77.3179Z" fill="#FFE86F"/>
<path d="M245.678 41.5057C251.558 47.4073 257.437 57.6011 252.418 72.4893C252.418 72.4893 235.209 72.8917 230.046 52.7724C224.884 32.6532 237.504 22.0571 237.504 22.0571C237.79 26.8857 241.519 37.3477 245.678 41.5057ZM234.779 40.9692C234.349 38.8231 232.914 38.4207 232.914 38.4207C232.914 38.4207 228.182 65.2464 250.841 69.8067C250.841 69.8067 251.271 60.2836 249.406 56.3939C247.542 52.5042 238.938 43.3835 238.507 37.7501C237.79 46.4684 237.217 53.4431 241.949 57.7352C246.682 61.8932 248.403 66.7218 248.116 67.7948C244.961 65.5146 231.194 56.9304 234.779 40.9692Z" fill="#FFE86F"/>
<path d="M282.247 75.574C265.181 78.3907 255.143 72.6232 255.143 72.6232C255.143 72.6232 259.301 51.0286 276.08 52.6381C292.859 54.2477 299.026 52.9064 304.188 45.7976C303.041 52.2358 299.312 72.7573 282.247 75.574ZM272.782 68.3311C281.96 68.5994 286.262 63.3684 292.142 56.662C287.696 60.8199 287.409 60.0152 274.359 61.0882C261.309 62.1612 257.724 71.2819 257.724 71.2819C283.537 80.9392 295.871 62.5636 298.165 58.0033C297.161 59.3445 295.871 60.5517 294.293 61.3565C279.665 76.6471 267.763 71.4161 260.879 70.6113C262.313 67.9287 263.604 67.9287 272.782 68.3311Z" fill="#FFE86F"/>
<path d="M257.867 39.628C261.309 34.7994 266.185 33.4581 270.344 35.47C274.503 37.4819 273.356 43.6518 270.631 47.1392C268.623 49.9558 265.898 52.1019 262.743 53.7114C262.743 53.7114 272.208 43.9201 265.325 40.4328C261.022 38.2867 256.433 46.4685 256.577 50.2241C256.72 50.2241 254.426 44.3225 257.867 39.628Z" fill="#FFE86F"/>
<path d="M229.759 58.5399C212.694 42.5787 201.078 50.7605 201.078 50.7605C201.078 50.7605 203.085 36.5429 214.128 38.2866C225.744 40.1644 229.759 58.5399 229.759 58.5399Z" fill="#FFE86F"/>
<path d="M237.646 69.2701C230.333 67.7947 222.732 67.3924 215.848 70.4773C208.965 73.5622 203.945 79.1956 204.089 84.9631C194.624 80.0004 194.48 57.3327 208.391 53.3089C222.302 49.2851 237.646 69.2701 237.646 69.2701Z" fill="#FFE86F"/>
<path d="M314.514 86.8408C317.095 84.4265 319.103 78.3908 314.944 74.6352C308.347 68.8677 295.44 72.8915 295.44 72.8915C303.615 61.4906 322.831 52.6382 329.285 59.6128C335.738 66.5875 330.719 84.2924 314.514 86.8408Z" fill="#FFE86F"/>
<path d="M318.099 54.5163C310.928 55.3211 300.603 65.2466 300.603 65.2466C302.467 57.0648 311.502 41.2377 320.68 42.4448C329.858 43.652 330.719 54.3822 330.432 58.5402C327.994 55.7235 323.835 53.8457 318.099 54.5163Z" fill="#FFE86F"/>
<path d="M270.487 50.2239C270.487 50.2239 270.487 50.0892 270.775 50.0892L270.487 50.2239Z" fill="#FFE86F"/>
<path d="M281.816 49.9558C273.499 49.0169 271.204 49.6875 270.631 50.0899C271.634 49.151 276.08 45.3954 280.813 46.066C279.235 45.2613 277.514 44.993 275.65 45.1272C276.08 44.4565 276.367 43.7859 276.654 42.9811C278.948 41.7739 281.53 40.9692 284.111 40.9692C281.673 40.835 279.235 41.1033 276.941 41.9081C277.084 41.2374 277.227 40.4327 277.227 39.762C279.522 38.1525 281.96 36.6771 284.541 35.7382C281.96 36.2747 279.379 37.0794 277.084 38.1525C276.941 37.4818 276.797 36.9453 276.51 36.2747C278.805 33.8604 281.386 31.7143 284.254 29.9707C281.243 31.312 278.375 32.9215 275.65 34.7993C275.506 34.531 275.363 34.2628 275.22 33.9945C275.076 33.8604 274.933 33.5921 274.646 33.458C277.084 29.9707 279.952 26.8857 283.251 24.2032C279.809 26.7516 276.654 29.4341 273.786 32.5191C273.355 32.1167 272.925 31.8485 272.351 31.5802C274.216 27.2881 276.367 23.1301 278.948 19.2404C275.937 22.996 273.355 27.0198 270.917 31.1778C270.631 31.0437 270.344 31.0437 270.057 30.9096C271.061 27.4222 271.778 24.069 272.351 21.6547C271.061 24.8738 269.914 28.227 268.766 30.9096C268.193 30.9096 267.619 30.9096 267.045 31.0437C267.332 27.0199 267.476 22.5936 267.332 20.85C266.902 24.3373 266.041 28.3611 265.324 31.4461C264.321 31.7143 263.317 32.1167 262.313 32.6532C262.169 29.1659 262.026 25.2762 261.739 22.996C261.596 26.6175 261.309 30.2389 260.879 33.458C260.018 33.9945 259.301 34.6652 258.441 35.3358C257.867 31.8485 257.007 28.8976 256.577 26.8857C256.72 30.5072 256.863 33.7263 257.007 36.6771C256.29 37.3477 255.716 38.1525 255.142 38.9573C254.569 36.5429 253.565 34.1286 252.274 31.9826C253.278 35.2017 253.708 38.5549 253.565 41.9081C252.991 43.1152 252.705 44.3224 252.561 45.6637V45.7978C252.561 45.7978 241.088 38.0183 242.522 26.0809C243.957 14.1435 254.999 6.36411 263.747 7.43714C272.495 8.51016 269.914 17.6309 269.914 17.6309C269.914 17.6309 276.797 2.60852 286.549 8.64428C292.716 12.534 289.704 20.7158 289.704 20.7158C289.704 20.7158 296.588 15.7531 303.041 20.9841C308.204 25.1421 309.638 30.5072 305.479 38.1525C301.177 46.6025 292.715 51.1629 281.816 49.9558ZM263.604 10.7903C257.007 9.71732 250.697 15.3507 249.406 18.838C246.968 25.0079 248.402 28.227 248.402 28.227C248.976 25.1421 250.267 22.1912 252.274 19.5087C255.142 16.1555 259.301 12.9364 262.887 13.607C265.038 14.0094 266.759 15.4848 267.332 17.4967C267.189 17.6309 270.057 11.8634 263.604 10.7903ZM283.681 10.1197C279.092 8.77842 276.224 14.8142 276.224 14.8142C276.224 14.8142 281.386 11.8634 283.394 12.534C285.402 13.2047 286.836 15.0824 286.979 18.838C288.7 15.2166 288.126 11.3269 283.681 10.1197ZM303.471 35.8723C305.335 31.1778 305.909 26.3492 301.607 22.5936C297.018 18.5698 293.146 23.1301 293.146 23.1301C297.161 21.3865 301.894 23.2643 302.324 29.9707C302.754 37.616 294.58 44.3224 294.58 44.3224C294.58 44.3224 301.463 40.5668 303.471 35.8723Z" fill="#FFE86F"/>
<path d="M251.987 73.5622C251.987 73.5622 249.119 79.4638 252.561 80.0003C256.003 80.5368 254.999 74.0987 254.999 74.0987L261.452 76.513C261.452 76.513 260.305 87.1091 251.127 84.9631C243.67 83.2194 245.104 72.7574 245.104 72.7574L251.987 73.5622Z" fill="#FFE86F"/>
<path d="M272.925 128.555C239.368 126.14 245.247 99.717 246.251 83.8899C246.251 83.8899 250.267 86.9748 254.856 86.4383C240.228 104.277 250.697 126.274 272.925 128.555Z" fill="#FFE86F"/>
<path d="M106.571 187.169C96.1025 184.218 51.5024 177.377 35.2973 204.874C27.123 219.091 14.7898 224.054 22.2471 229.419C5.32486 229.419 -7.00829 199.374 24.685 181.938C-7.58192 194.412 0.30555 239.747 -42 230.76C-20.3453 229.285 -33.8257 195.485 11.9216 178.316C43.4715 166.513 73.444 172.549 106.571 187.169Z" fill="#FFE86F"/>
<path d="M200.934 107.899C189.892 95.6935 186.163 93.6816 174.26 80.9394C173.113 82.8172 171.392 84.2926 169.384 85.2315C180.14 91.2673 188.027 96.6324 200.934 107.899Z" fill="#FFE86F"/>
<path d="M173.113 78.391C171.966 82.6831 167.233 85.0974 162.644 84.0244C158.055 82.9514 155.474 78.5251 156.621 74.233C157.768 69.9409 162.501 67.5266 167.09 68.5996C171.679 69.8068 174.26 74.0989 173.113 78.391ZM160.493 74.3672C161.497 74.6354 162.501 74.0989 162.644 73.16C162.788 72.2211 162.357 71.2822 161.353 71.1481C160.35 70.8798 159.346 71.4163 159.202 72.3552C158.916 73.2941 159.489 74.233 160.493 74.3672ZM170.532 72.6235C170.532 72.6235 171.105 77.1839 168.094 79.5982C164.652 82.549 159.776 80.8053 159.776 80.8053C160.923 81.7442 165.369 84.0244 169.098 81.0736C171.679 78.9275 172.253 75.4402 170.532 72.6235Z" fill="#FFE86F"/>
<path d="M277.084 129.896C277.084 129.896 236.069 122.519 198.64 148.674C174.834 165.44 173.4 201.386 203.516 207.288C224.453 211.446 242.379 197.497 239.368 180.731C236.213 163.428 213.554 155.515 202.368 169.33C212.981 157.526 232.771 164.233 230.19 179.121C227.895 192.4 211.403 193.875 204.089 191.327C190.752 186.766 188.601 172.415 202.942 154.576C218.43 135.127 260.019 127.884 277.084 129.896Z" fill="#FFE86F"/>
<path d="M43.0416 36.0062C31.8557 42.7126 29.5612 50.0897 29.5612 50.0897C30.7085 42.5785 34.1503 34.665 38.0223 30.507C47.2004 20.8498 55.0879 28.7633 43.0416 36.0062ZM98.9709 -1.14724C97.25 2.07184 94.5252 2.07182 93.2346 0.998802C91.5137 -0.476608 94.9555 -2.89091 96.6764 -2.3544C95.0989 -4.36633 90.5098 -4.23219 88.5021 -2.62265C83.3394 0.998802 84.3432 6.63218 85.3471 12.3997C86.351 18.1672 83.4828 22.4593 75.3085 24.8736C73.014 25.276 71.2931 27.1538 71.2931 29.434C71.2931 29.434 75.4519 27.1538 76.886 29.8363C77.8899 32.2506 76.5992 34.9332 74.0178 35.8721C73.5876 36.0062 73.3008 36.1404 72.8706 36.1404C70.0024 36.2745 61.6847 33.4578 48.7779 43.115C56.3786 39.4936 63.9792 39.2253 69.1419 44.5904C75.3085 50.8945 74.8783 58.5398 69.4288 63.1001C63.9792 67.5263 52.65 65.3803 53.2236 58.1374C56.8088 59.0763 60.9677 56.662 59.2467 53.1746C57.5258 49.6873 54.6577 49.5532 49.9252 51.0286C45.1927 52.504 34.4371 55.7231 30.9953 71.9526C28.8441 82.6828 30.8519 90.194 33.1464 99.3147C33.1464 99.3147 24.6853 81.4757 22.104 67.7946C19.666 55.1866 20.6699 51.1627 21.8171 42.5785C23.2512 31.0435 31.7123 23.5323 33.003 16.1553C34.4371 9.18062 31.7123 1.9377 25.8326 -2.62265C30.7085 -4.76871 43.0416 -9.19493 45.9098 5.42503C49.7818 0.59642 47.4872 -4.76869 51.3593 -5.84172C54.6577 -6.78062 56.3786 0.0599136 53.7972 3.54725C57.0956 1.53532 59.677 -3.02504 58.8165 -6.6465C57.9561 -9.86557 62.1149 -14.4259 65.4133 -7.98778C67.5644 -10.9386 69.7156 -13.8894 74.0178 -14.2918C77.0294 -14.5601 80.1844 -11.0727 79.0371 -7.183C82.7657 -11.4751 90.223 -14.4259 95.6725 -11.7434C99.8314 -9.46319 100.405 -3.8298 98.9709 -1.14724ZM68.7117 9.98538C63.9792 12.2656 59.5336 15.0823 55.5181 18.3013C55.2313 18.1672 54.9445 17.8989 54.6577 17.7648C57.0956 15.0823 60.6808 11.3267 64.4095 7.43695C60.6808 10.5219 57.0956 13.741 53.9406 17.3624C53.6538 17.2283 53.2236 17.0942 52.7934 16.9601C54.9445 13.4727 57.6693 8.91235 59.2467 6.63218C57.0956 9.18061 53.9406 13.3386 51.6461 16.5577C51.2159 16.4235 50.7857 16.4235 50.3554 16.4235L53.5104 8.24173L49.0647 16.4235C48.6345 16.4235 48.0609 16.4235 47.6307 16.5577C47.6307 13.8751 48.2043 11.1925 49.3516 8.6441C47.6307 10.5219 46.6268 14.2775 46.34 16.8259C45.6229 17.0942 44.9059 17.3624 44.1889 17.6307C43.6152 15.0823 43.7586 12.5338 44.7625 10.1195C43.3284 12.6679 42.468 15.6188 42.3246 18.5696C41.8943 18.8378 40.4602 19.9109 40.1734 20.1791C40.4602 17.8989 40.4602 13.741 38.4525 11.1925C40.4602 15.7529 38.7393 18.8378 37.7355 21.2522C36.7316 23.6665 33.4332 30.9094 30.2782 38.9571C27.1232 47.0047 26.1194 58.2715 27.9837 66.0509C27.6969 54.65 34.0069 44.0539 44.6191 38.4206C62.832 28.4951 65.5567 33.9943 65.5567 33.9943C65.5567 33.9943 63.8358 30.507 56.2352 31.58C56.522 31.4459 56.6654 31.1776 56.9522 30.9094C60.2506 29.5681 63.8358 28.8975 67.421 29.0316C64.5529 28.3609 60.9677 28.7633 58.3863 29.0316C58.6731 28.4951 58.9599 27.9585 59.2467 27.422C63.9792 25.9466 67.8513 24.6054 70.576 23.9347C66.704 24.6054 62.5452 25.276 59.3902 25.9466C59.3902 25.276 59.3902 24.6053 59.1033 24.0688C62.6886 21.9228 66.4172 20.045 70.4326 18.5696C66.4172 19.6426 62.4017 20.9839 58.6731 22.7275C58.5297 22.3252 58.2429 21.9228 58.0995 21.6545C61.9715 18.5696 66.1304 15.7529 70.576 13.3386C65.9869 15.4846 61.5413 17.8989 57.239 20.5815C56.9522 20.3133 56.8088 20.045 56.522 19.7767C60.9677 15.2164 65.2699 11.5949 68.7117 9.98538Z" fill="#FFE86F"/>
<path d="M141.85 34.2627C141.85 35.7382 143.14 36.9453 144.718 36.9453C146.295 36.9453 147.586 35.7382 147.586 34.2627C147.586 32.7873 146.295 31.5802 144.718 31.5802C143.14 31.5802 141.85 32.7873 141.85 34.2627Z" fill="#FFE86F"/>
<path d="M136.974 27.5563C136.974 28.7635 137.978 29.7024 139.268 29.7024C140.559 29.7024 141.563 28.7635 141.563 27.5563C141.563 26.3492 140.559 25.4103 139.268 25.4103C137.978 25.4103 136.974 26.3492 136.974 27.5563Z" fill="#FFE86F"/>
<path d="M141.419 44.3223C141.419 46.2001 142.997 47.6755 145.005 47.6755C147.012 47.6755 148.59 46.2001 148.59 44.3223C148.59 42.4445 147.012 40.9691 145.005 40.9691C142.997 40.9691 141.419 42.4445 141.419 44.3223Z" fill="#FFE86F"/>
<path d="M89.6489 85.6337C89.6489 87.5115 91.2264 88.9869 93.2341 88.9869C95.2419 88.9869 96.8193 87.5115 96.8193 85.6337C96.8193 83.7559 95.2419 82.2805 93.2341 82.2805C91.2264 82.4147 89.6489 83.8901 89.6489 85.6337Z" fill="#FFE86F"/>
<path d="M110.587 31.0434C110.587 33.4577 112.738 35.4696 115.319 35.4696C117.901 35.4696 120.052 33.4577 120.052 31.0434C120.052 28.6291 117.901 26.6172 115.319 26.6172C112.738 26.6172 110.587 28.6291 110.587 31.0434Z" fill="#FFE86F"/>
<path d="M194.624 175.231C194.624 177.78 196.775 179.792 199.5 179.792C202.225 179.792 204.376 177.78 204.376 175.231C204.376 172.683 202.225 170.671 199.5 170.671C196.775 170.671 194.624 172.817 194.624 175.231Z" fill="#FFE86F"/>
<path d="M199.5 185.962C199.5 187.973 201.221 189.583 203.372 189.583C205.523 189.583 207.244 187.973 207.244 185.962C207.244 183.95 205.523 182.34 203.372 182.34C201.221 182.474 199.5 184.084 199.5 185.962Z" fill="#FFE86F"/>
<path d="M209.108 189.181C209.108 190.79 210.542 192.132 212.263 191.998C213.984 191.998 215.418 190.656 215.418 189.047C215.418 187.437 213.984 186.23 212.263 186.096C210.399 186.23 209.108 187.571 209.108 189.181Z" fill="#FFE86F"/>
<path d="M219.004 187.035C219.004 188.242 220.151 189.315 221.442 189.315C222.733 189.315 223.88 188.242 223.88 187.035C223.88 185.827 222.733 184.754 221.442 184.754C220.008 184.754 219.004 185.693 219.004 187.035Z" fill="#FFE86F"/>
<path d="M225.027 180.999C225.027 182.072 225.887 182.876 227.035 182.876C228.182 182.876 229.042 182.072 229.042 180.999C229.042 179.926 228.182 179.121 227.035 179.121C225.887 179.121 225.027 179.926 225.027 180.999Z" fill="#FFE86F"/>
<path d="M141.563 205.142C141.563 205.142 113.885 193.338 89.5057 204.069C68.4246 213.189 71.5796 226.334 83.7693 228.346C92.3739 229.687 103.847 217.347 108.292 214.128C114.889 209.031 129.373 201.252 141.563 205.142Z" fill="#FFE86F"/>
<path d="M158.055 210.91C158.055 210.91 130.664 200.716 116.897 211.312C105.711 219.896 112.881 227.139 117.47 227.407C123.78 227.944 129.803 223.92 133.819 218.823C137.261 214.531 148.733 209.434 158.055 210.91Z" fill="#FFE86F"/>
<path d="M172.683 215.336C172.683 215.336 154.04 209.836 145.148 214.531C136.257 219.225 141.563 224.322 144.862 224.456C149.307 224.725 151.745 222.579 154.47 219.896C158.055 216.677 166.086 214.531 172.683 215.336Z" fill="#FFE86F"/>
<path d="M124.067 196.826C109.153 190.12 74.5913 179.658 50.4987 196.558C29.5611 211.312 41.464 228.883 52.363 228.883C46.3399 222.177 55.2312 218.823 66.7039 214.397C81.9052 208.495 91.3701 190.254 124.067 196.826Z" fill="#FFE86F"/>
<path d="M263.173 224.456C263.173 224.456 230.046 226.602 198.353 220.969C188.744 219.225 175.981 216.677 169.671 217.482C161.927 218.42 157.338 222.713 160.78 226.334C161.353 224.054 166.803 220.03 179.136 219.359C172.539 220.432 169.384 222.981 171.822 226.871C173.113 223.249 184.012 220.969 190.465 221.103C183.869 221.774 179.279 224.59 182.148 227.944C182.148 225.529 197.062 222.31 202.655 222.981C195.915 223.115 191.469 225.395 193.047 228.346C197.492 225.261 205.093 225.395 211.977 225.798C218.143 226.066 246.108 226.334 263.173 224.456Z" fill="#FFE86F"/>
<path d="M73.3003 96.4982C95.3852 107.899 107.001 97.0347 138.551 89.1211C173.256 80.5369 200.934 111.521 219.577 121.714C199.93 113.264 174.117 107.899 149.02 114.74C110.587 125.067 85.9202 112.325 73.3003 96.4982Z" fill="#FFE86F"/>
<path d="M277.228 0.596371C291.712 -0.208397 317.525 1.66941 336.599 14.9481C347.641 22.7275 352.66 33.1895 352.23 43.2491C351.8 53.7111 343.052 61.7588 334.161 59.881C341.044 58.2715 348.932 49.8214 346.494 39.6277C346.207 48.2119 339.897 54.65 334.878 54.5159C340.327 51.2968 344.486 42.042 343.196 34.799C341.761 41.3713 340.184 47.1388 333.874 48.7484C338.75 44.8587 341.331 34.2625 338.75 27.8244C338.893 35.3356 336.742 40.5666 333.013 41.7737C334.734 38.6888 338.176 32.653 330.576 22.4593C321.541 10.3877 302.754 2.34004 277.228 0.596371Z" fill="#FFE86F"/>
<path d="M90.6819 176.506C62.1831 152.527 53.5328 136.702 29.3689 115.733C16.386 104.554 2.15369 99.212 -13.1992 101.985C-28.552 104.757 -37.4869 119.436 -32.1471 130.051C-31.9464 120.908 -22.0462 108.062 -6.39099 108.096C-18.8569 111.129 -26.3385 121.034 -24.5427 127.393C-21.5452 119.455 -9.35969 111.466 1.66738 110.921C-7.59492 114.737 -15.4251 118.481 -15.8069 126.962C-11.6335 119.503 2.93431 113.008 13.2158 114.515C2.27211 116.533 -4.65338 121.038 -5.36785 126.178C-1.38153 123.026 6.31984 117.005 23.4769 123.277C41.8176 130.162 64.1297 159.013 90.6819 176.506Z" fill="#FFE86F"/>
<path d="M78.7504 155.783C78.7504 155.783 59.677 141.029 60.1073 127.213C60.6809 109.509 73.014 106.692 80.4713 109.643C73.8745 110.313 73.5877 113.532 77.0295 120.775C81.6185 130.701 70.2893 140.09 78.7504 155.783Z" fill="#FFE86F"/>
<path d="M105.854 177.109C105.854 177.109 76.1684 159.941 78.4629 139.687C80.7574 119.836 94.3812 117.154 102.412 120.909C95.9587 121.848 95.0983 123.19 99.8308 133.115C106.141 146.662 92.8037 160.88 105.854 177.109Z" fill="#FFE86F"/>
<path d="M130.52 124.531C130.52 124.531 109.726 121.714 104.564 150.552C101.265 169.598 122.49 190.388 156.191 203.264C133.389 189.851 129.23 171.476 130.52 159.136C132.528 139.687 119.335 130.835 130.52 124.531Z" fill="#FFE86F"/>
<path d="M203.372 217.348C203.372 217.348 157.338 207.154 141.993 182.877C130.377 164.501 130.233 139.285 157.338 128.287C175.264 120.91 192.76 125.068 201.364 128.555C193.907 129.628 169.814 136.871 164.221 160.611C159.345 182.072 174.547 210.239 209.682 218.018C207.674 218.018 205.523 217.75 203.372 217.348Z" fill="#FFE86F"/>
<path d="M272.925 128.555C260.018 126.945 247.972 122.116 250.267 103.473C251.414 93.9495 259.875 91.5352 265.611 93.413C270.774 95.1567 276.51 102.131 272.782 108.435C270.2 112.727 264.321 112.191 260.305 109.911C263.747 109.642 268.623 105.887 263.89 103.07C259.158 100.254 254.139 108.435 256.72 115.41C259.588 121.982 265.611 126.945 272.925 128.555Z" fill="#FFE86F"/>
<path d="M117.327 94.4864C111.304 95.5594 92.2303 105.485 74.4476 95.5594C57.382 85.9022 61.6842 71.6846 68.4244 68.0631C77.746 63.2345 90.7962 67.2584 92.6605 81.3418C88.7885 67.1242 71.2926 69.002 68.4244 77.0497C66.7035 81.8783 66.9904 87.78 77.3158 93.2792C87.928 98.7785 97.1062 97.9737 117.327 94.4864Z" fill="#FFE86F"/>
<path d="M200.504 107.63C179.566 85.9017 184.299 37.6156 164.795 18.5694C145.292 -0.476761 115.032 7.70504 110.443 13.3384C119.335 7.30266 144.144 9.58283 160.636 30.7751C177.128 51.9673 174.834 84.1581 200.504 107.63Z" fill="#FFE86F"/>
<path d="M226.317 43.7859C226.317 43.7859 228.182 32.1167 221.155 27.9587C214.128 23.8008 209.395 30.3731 207.674 33.0556C214.128 32.385 220.438 34.3969 226.317 43.7859Z" fill="#FFE86F"/>
<path d="M270.774 129.225C263.173 130.164 255.429 129.896 247.972 128.287C235.639 125.604 224.023 118.495 228.899 108.972C230.62 105.619 234.922 104.278 238.507 106.021C238.794 106.155 239.224 106.424 239.511 106.558C242.953 109.24 242.953 115.276 235.782 116.886C238.794 123.726 251.414 127.884 270.774 129.225Z" fill="#FFE86F"/>
<path d="M235.926 130.298C235.926 130.298 167.52 145.186 178.706 186.766C169.671 169.061 167.52 153.905 180.857 143.711C194.194 133.517 221.298 130.566 235.926 130.298Z" fill="#FFE86F"/>
<path d="M267.476 218.555C267.476 218.555 246.538 219.091 238.794 212.921C232.484 207.69 238.507 202.459 241.806 202.459C247.255 202.325 252.561 207.556 245.821 211.714C250.123 214.799 254.999 216.811 267.476 218.555Z" fill="#FFE86F"/>
<path d="M290.851 214.531C290.851 214.531 270.631 219.762 259.445 212.787C248.259 205.813 256.003 198.302 261.883 198.167C267.762 198.033 270.63 202.459 272.495 205.276C275.65 209.434 281.96 215.068 290.851 214.531Z" fill="#FFE86F"/>
<path d="M326.847 203.667C326.847 203.667 295.584 214.933 282.82 208.495C266.472 200.179 270.057 188.779 276.797 184.084C273.786 188.242 276.797 191.461 285.402 191.998C297.018 192.534 307.773 203.667 326.847 203.667Z" fill="#FFE86F"/>
<path d="M317.095 137.407C303.185 145.589 293.289 144.382 288.844 139.419C290.278 152.162 305.909 170.269 335.738 165.44C393.245 156.32 387.796 104.948 388.369 95.2913C374.889 123.056 339.037 124.397 317.095 137.407ZM386.362 107.363C386.362 107.363 380.912 142.907 344.773 154.308C308.634 165.709 295.01 148.004 295.01 148.004C303.615 155.783 316.235 160.343 344.343 151.759C364.42 145.723 381.916 127.482 386.362 107.363Z" fill="#FFE86F"/>
<path d="M308.204 170.671C292.429 174.158 289.417 173.085 288.987 165.038C282.247 174.561 288.987 194.009 311.645 194.546C345.92 195.485 366.427 174.427 374.028 162.087C350.079 173.756 327.707 166.379 308.204 170.671ZM363.416 169.866C363.416 169.866 324.122 196.96 294.58 182.206C320.25 193.473 354.381 174.561 363.416 169.866Z" fill="#FFE86F"/>
<path d="M342.192 91.8037C334.448 109.106 325.7 121.044 317.095 123.19C333.3 126.409 366.571 119.836 375.319 91.6695C388.226 50.0898 349.075 19.5086 349.075 19.5086C365.28 50.3581 348.789 77.0496 342.192 91.8037ZM357.106 32.519C366.571 50.7605 383.063 90.7306 343.626 114.605C368.866 97.9736 374.028 63.5026 357.106 32.519Z" fill="#FFE86F"/>
<path d="M266.185 129.628C266.185 133.115 269.197 135.932 272.925 135.932C276.654 135.932 279.665 133.115 279.665 129.628C279.665 126.141 276.654 123.324 272.925 123.324C269.197 123.324 266.185 126.141 266.185 129.628Z" fill="#FFE86F"/>
<path d="M265.898 130.969C266.042 131.505 266.185 132.176 266.328 132.713C265.181 133.786 263.747 134.59 262.313 135.395C263.89 134.859 265.324 134.188 266.615 133.383C266.615 133.517 266.759 133.517 266.759 133.652C265.468 134.993 263.89 136.066 262.313 136.871C264.177 136.334 265.898 135.529 267.332 134.456C267.476 134.59 267.476 134.725 267.619 134.859C266.185 136.334 264.464 137.675 262.743 138.883C264.751 138.078 266.615 137.005 268.336 135.529C268.479 135.663 268.479 135.798 268.623 135.798C267.476 137.273 266.185 138.614 264.751 139.687C266.472 138.883 268.049 137.675 269.483 136.334L269.77 136.468C269.053 137.809 268.193 139.017 266.902 139.956C268.479 139.285 269.627 138.212 270.631 136.871C271.778 137.407 273.212 137.809 274.503 137.809H274.789C275.937 139.419 276.654 141.163 277.371 142.906C277.084 141.163 276.654 139.419 275.937 137.675H276.224C277.514 139.419 278.518 141.297 279.235 143.309C278.948 141.163 278.518 139.151 277.514 137.273L277.944 137.139C279.379 139.017 280.669 141.163 281.673 143.309C281.243 140.894 280.239 138.614 278.948 136.602L279.379 136.334C280.956 137.809 282.247 139.553 283.251 141.431C282.677 139.285 281.673 137.407 280.239 135.663L280.526 135.395C282.103 136.468 283.251 137.809 284.254 139.419C283.681 137.541 282.677 135.932 281.243 134.59C282.39 133.249 282.964 131.505 282.964 129.762C282.964 129.628 282.964 129.628 282.964 129.494C284.541 129.091 286.119 128.957 287.696 128.823C286.119 128.689 284.541 128.689 282.964 128.689C282.964 128.555 282.964 128.421 282.964 128.286C284.828 127.75 286.692 127.347 288.7 127.213C286.692 126.945 284.685 126.945 282.677 127.213C282.677 127.079 282.534 126.811 282.534 126.677C284.685 126.006 286.979 125.336 289.274 125.067C286.836 124.933 284.398 125.201 282.103 125.872C281.96 125.738 281.96 125.47 281.816 125.336C283.681 124.397 285.689 123.726 287.696 123.324C285.402 123.324 283.251 123.726 281.099 124.531C280.956 124.397 280.956 124.397 280.813 124.263C282.247 123.19 283.968 122.385 285.832 121.982C283.824 121.982 281.817 122.519 280.096 123.458C278.662 122.385 276.797 121.714 274.933 121.58C274.359 119.836 274.072 118.227 273.786 116.483C273.642 118.227 273.786 119.97 273.929 121.714H273.642C272.925 119.836 272.352 117.824 272.208 115.678C272.065 117.69 272.065 119.836 272.495 121.848L272.065 121.982C271.204 119.836 270.487 117.556 270.057 115.276C270.057 117.69 270.344 119.97 271.061 122.251L270.631 122.385C269.627 120.641 268.91 118.763 268.336 116.751C268.479 118.897 268.91 120.909 269.77 122.921L269.483 123.055C268.336 121.714 267.619 120.105 267.189 118.495C267.189 120.239 267.762 121.982 268.623 123.592C268.049 123.994 267.619 124.531 267.189 125.067C263.173 121.043 261.022 114.337 269.914 112.862C279.952 111.118 278.948 119.3 277.801 121.312C280.956 117.422 290.421 114.069 293.576 121.982C296.301 128.957 291.855 135.261 284.685 133.115C287.266 135.932 290.421 142.772 282.677 145.723C273.786 149.076 271.491 142.638 271.348 137.944C270.631 141.833 265.038 144.918 261.022 141.297C257.58 138.48 256.577 133.115 265.898 130.969Z" fill="#FFE86F"/>
<path d="M256.433 132.176C239.511 136.334 227.895 150.954 239.941 167.854C248.546 179.926 248.546 187.705 245.247 196.826C263.46 192.668 277.658 170.939 262.456 154.173C253.278 143.846 253.422 136.737 256.433 132.176ZM248.689 163.294C253.852 172.951 260.305 183.816 249.693 192.668C258.728 181.67 251.127 171.744 247.112 164.099C239.224 148.808 242.379 143.041 249.98 136.469C242.522 143.175 241.949 150.82 248.689 163.294Z" fill="#FFE86F"/>
</g>
</svg>
