<svg width="48" height="178" viewBox="0 0 48 178" fill="none" xmlns="http://www.w3.org/2000/svg">
<rect x="-0.00012207" width="48" height="178" fill="url(#paint0_linear_642_65)"/>
<path d="M16.9999 151.64L30.9999 151.64L30.9999 154.2L19.1999 154.2L19.1999 161.46L30.9999 161.46L30.9999 164.02L16.9999 164.02L16.9999 151.64ZM31.1999 141.212C31.1999 142.639 30.8932 143.926 30.2799 145.072C29.6532 146.219 28.7932 147.119 27.6999 147.772C26.5932 148.426 25.3599 148.752 23.9999 148.752C22.6399 148.752 21.4132 148.426 20.3199 147.772C19.2132 147.119 18.3532 146.219 17.7399 145.072C17.1132 143.926 16.7999 142.639 16.7999 141.212C16.7999 139.786 17.1132 138.499 17.7399 137.352C18.3532 136.206 19.2065 135.306 20.2999 134.652C21.3932 133.999 22.6265 133.672 23.9999 133.672C25.3732 133.672 26.6065 133.999 27.6999 134.652C28.7932 135.306 29.6532 136.206 30.2799 137.352C30.8932 138.499 31.1999 139.786 31.1999 141.212ZM28.9199 141.212C28.9199 140.279 28.7132 139.439 28.2999 138.692C27.8732 137.946 27.2865 137.359 26.5399 136.932C25.7799 136.506 24.9332 136.292 23.9999 136.292C23.0665 136.292 22.2265 136.506 21.4799 136.932C20.7199 137.359 20.1332 137.946 19.7199 138.692C19.2932 139.439 19.0799 140.279 19.0799 141.212C19.0799 142.146 19.2932 142.986 19.7199 143.732C20.1332 144.479 20.7199 145.066 21.4799 145.492C22.2265 145.919 23.0665 146.132 23.9999 146.132C24.9332 146.132 25.7799 145.919 26.5399 145.492C27.2865 145.066 27.8732 144.479 28.2999 143.732C28.7132 142.986 28.9199 142.146 28.9199 141.212ZM16.9999 130.778L16.9999 119.878L19.1399 119.878L19.1399 128.218L22.5799 128.218L22.5799 124.078C22.5799 122.398 22.9332 121.124 23.6399 120.258C24.3332 119.378 25.3399 118.938 26.6599 118.938C28.0465 118.938 29.1199 119.418 29.8799 120.378C30.6265 121.338 30.9999 122.704 30.9999 124.478L30.9999 130.778L16.9999 130.778ZM28.9999 124.618C28.9999 123.618 28.8065 122.858 28.4199 122.338C28.0332 121.818 27.4732 121.558 26.7399 121.558C25.2999 121.558 24.5799 122.578 24.5799 124.618L24.5799 128.218L28.9999 128.218L28.9999 124.618ZM28.8199 105.591L30.9999 105.591L30.9999 116.091L16.9999 116.091L16.9999 105.871L19.1799 105.871L19.1799 113.491L22.8199 113.491L22.8199 106.731L24.9599 106.731L24.9599 113.491L28.8199 113.491L28.8199 105.591ZM28.7999 88.8123L33.9799 88.8123L33.9799 91.2123L30.9999 91.2123L30.9999 101.952L33.9799 101.952L33.9799 104.372L28.7999 104.352L28.7999 103.752C28.7599 102.872 28.1132 102.259 26.8599 101.912C25.5932 101.552 23.7865 101.332 21.4399 101.252L16.9999 101.092L16.9999 90.8323L28.7999 90.8323L28.7999 88.8123ZM21.6799 98.9723C23.4932 99.039 25.0065 99.1857 26.2199 99.4123C27.4199 99.639 28.2799 99.999 28.7999 100.492L28.7999 93.3923L19.1999 93.3923L19.1999 98.8723L21.6799 98.9723ZM16.9999 86.3442L16.9999 83.7842L26.9399 83.7842L16.9999 76.2642L16.9999 73.8442L30.9999 73.8442L30.9999 76.4042L21.0799 76.4042L30.9999 83.9242L30.9999 86.3442L16.9999 86.3442ZM19.1999 59.7589L19.1999 64.3989L30.9999 64.3989L30.9999 66.9789L19.1999 66.9789L19.1999 71.5989L16.9999 71.5989L16.9999 59.7589L19.1999 59.7589ZM28.8199 47.0166L30.9999 47.0166L30.9999 57.5166L16.9999 57.5166L16.9999 47.2966L19.1799 47.2966L19.1799 54.9166L22.8199 54.9166L22.8199 48.1566L24.9599 48.1566L24.9599 54.9166L28.8199 54.9166L28.8199 47.0166ZM16.9999 32.1581L30.9999 32.1581L30.9999 34.7181L19.1999 34.7181L19.1999 40.2381L22.6999 40.3581C24.6599 40.4248 26.2532 40.5848 27.4799 40.8381C28.6932 41.0915 29.6199 41.4981 30.2599 42.0581C30.8865 42.6181 31.1999 43.3915 31.1999 44.3781C31.1999 44.7248 31.1332 45.1981 30.9999 45.7981L28.7399 45.6181C28.7932 45.4448 28.8199 45.2448 28.8199 45.0181C28.8199 44.2048 28.3399 43.6315 27.3799 43.2981C26.4065 42.9515 24.8799 42.7381 22.7999 42.6581L16.9999 42.4581L16.9999 32.1581ZM16.9999 28.1997L16.9999 25.6397L26.9399 25.6397L16.9999 18.1197L16.9999 15.6997L30.9999 15.6997L30.9999 18.2597L21.0799 18.2597L30.9999 25.7797L30.9999 28.1997L16.9999 28.1997Z" fill="white"/>
<defs>
<linearGradient id="paint0_linear_642_65" x1="23.9999" y1="0" x2="23.9999" y2="178" gradientUnits="userSpaceOnUse">
<stop stop-color="#D91B1B"/>
<stop offset="1" stop-color="#950E0E"/>
</linearGradient>
</defs>
</svg>
