<svg width="27" height="27" viewBox="0 0 27 27" fill="none" xmlns="http://www.w3.org/2000/svg">
<path fill-rule="evenodd" clip-rule="evenodd" d="M19.0504 13.6077C19.0504 14.7014 19.0504 15.439 19.0251 15.846C18.9745 16.8379 18.6965 17.601 18.1403 18.1351C17.5841 18.6692 16.851 18.9745 15.8651 19.0253C15.4606 19.0508 14.7022 19.0508 13.6404 19.0508C12.5534 19.0508 11.8202 19.0508 11.4157 19.0253C10.4298 18.9745 9.67141 18.6947 9.14053 18.1351C8.60964 17.601 8.30628 16.8379 8.25572 15.846C8.23044 15.439 8.23044 14.6759 8.23044 13.6077C8.23044 12.5394 8.23044 11.7763 8.25572 11.3694C8.30628 10.3774 8.58436 9.61435 9.14053 9.08021C9.67141 8.54608 10.4298 8.24086 11.4157 8.18999C11.8202 8.16455 12.5786 8.16455 13.6404 8.16455C14.7275 8.16455 15.4606 8.16455 15.8651 8.18999C16.851 8.24086 17.6094 8.52064 18.1403 9.08021C18.6712 9.63979 18.9745 10.3774 19.0251 11.3694C19.0251 11.5236 19.0287 11.7252 19.0332 11.9757V11.9758C19.0406 12.3865 19.0504 12.9284 19.0504 13.6077ZM14.1713 9.13088H13.6404H13.1095H12.3764C12.1994 9.13088 11.9719 9.13088 11.6938 9.15632C11.4157 9.15632 11.1629 9.18175 10.9607 9.23262C10.7584 9.25806 10.5815 9.30893 10.4551 9.3598C10.2276 9.46154 10.0253 9.58872 9.82308 9.76677C9.64611 9.94482 9.51971 10.1483 9.41859 10.4027C9.36803 10.5298 9.31747 10.7079 9.29219 10.9114C9.26691 11.1149 9.24163 11.3438 9.21635 11.649C9.21635 11.8046 9.20853 11.9445 9.20159 12.0687L9.20159 12.0687L9.20159 12.0687C9.19605 12.1677 9.19107 12.2568 9.19107 12.3358V13.0734V13.6075V14.1417V14.8793C9.19107 15.0574 9.19107 15.2863 9.21635 15.5661C9.21635 15.8459 9.24163 16.1002 9.29219 16.3037C9.3101 16.3758 9.32484 16.4447 9.33866 16.5092C9.36384 16.6269 9.38594 16.7303 9.41859 16.8124C9.51971 17.0413 9.64611 17.2448 9.82308 17.4483C10 17.6263 10.2023 17.7535 10.4551 17.8553C10.5815 17.9061 10.7584 17.957 10.9607 17.9824C11.1629 18.0079 11.3904 18.0333 11.6938 18.0587C11.9972 18.0842 12.1994 18.0842 12.3764 18.0842H13.1095H13.6404H14.1713H14.9044C15.0813 18.0842 15.3089 18.0842 15.5869 18.0587C15.865 18.0587 16.1178 18.0333 16.3201 17.9824C16.5223 17.957 16.6993 17.9061 16.8257 17.8553C17.0532 17.7535 17.2554 17.6263 17.4577 17.4483C17.6346 17.2702 17.761 17.0668 17.8622 16.8124C17.9127 16.6852 17.9633 16.5072 17.9886 16.3037C18.0138 16.1002 18.0391 15.8713 18.0644 15.5661C18.0644 15.4105 18.0722 15.2706 18.0792 15.1465V15.1464V15.1464L18.0792 15.1464V15.1464V15.1463V15.1463C18.0847 15.0473 18.0897 14.9583 18.0897 14.8793V14.1417V13.6075V13.0734V12.3358C18.0897 12.1577 18.0897 11.9288 18.0644 11.649C18.0644 11.3692 18.0391 11.1149 17.9886 10.9114C17.9633 10.7079 17.9127 10.5298 17.8622 10.4027C17.761 10.1737 17.6346 9.97025 17.4577 9.76677C17.2807 9.58872 17.0785 9.46154 16.8257 9.3598C16.6993 9.30893 16.5223 9.25806 16.3201 9.23262C16.1178 9.20719 15.8903 9.18175 15.5869 9.15632C15.4323 9.15632 15.2932 9.14845 15.1698 9.14146C15.0714 9.13589 14.9829 9.13088 14.9044 9.13088H14.1713ZM16.3962 13.6079C16.3962 12.8194 16.1181 12.1581 15.5872 11.6239C15.0563 11.0643 14.3991 10.81 13.6154 10.81C12.8317 10.81 12.1744 11.0898 11.6435 11.6239C11.1126 12.1835 10.8346 12.8194 10.8346 13.6079C10.8346 14.3964 11.1126 15.0577 11.6435 15.5919C12.1997 16.126 12.8317 16.4058 13.6154 16.4058C14.3991 16.4058 15.0563 16.126 15.5872 15.5919C16.1181 15.0323 16.3962 14.3964 16.3962 13.6079ZM14.9044 14.8794C15.2583 14.5234 15.4353 14.091 15.4353 13.6077C15.4353 13.1244 15.2583 12.6666 14.9044 12.3105C14.5505 11.9544 14.1207 11.7764 13.6151 11.7764C13.1095 11.7764 12.6798 11.9544 12.3258 12.3105C11.9719 12.6666 11.795 13.099 11.795 13.6077C11.795 14.1164 11.9719 14.5488 12.3258 14.8794C12.6798 15.2355 13.1095 15.4136 13.6151 15.4136C14.1207 15.4136 14.5505 15.2355 14.9044 14.8794ZM17.1797 10.6827C17.1797 10.5047 17.1038 10.352 16.9774 10.2248C16.851 10.0977 16.6993 10.0214 16.5223 10.0214C16.3454 10.0214 16.1937 10.0977 16.0673 10.2248C15.9409 10.352 15.865 10.5047 15.865 10.6827C15.865 10.8608 15.9409 11.0134 16.0673 11.1406C16.1937 11.2678 16.3454 11.3441 16.5223 11.3441C16.6993 11.3441 16.851 11.2678 16.9774 11.1406C17.1038 11.0134 17.1797 10.8608 17.1797 10.6827Z" fill="#2C2F31"/>
<circle cx="13.3333" cy="13.2676" r="13.0725" stroke="#A2A7AA" stroke-width="0.390223"/>
</svg>
