<svg width="28" height="27" viewBox="0 0 28 27" fill="none" xmlns="http://www.w3.org/2000/svg">
<path fill-rule="evenodd" clip-rule="evenodd" d="M13.9093 6.80396C12.0442 6.80396 10.5322 8.30378 10.5322 10.1539C10.5322 12.004 12.0442 13.5039 13.9093 13.5039C15.7745 13.5039 17.2864 12.004 17.2864 10.1539C17.2864 8.30378 15.7745 6.80396 13.9093 6.80396ZM13.9096 11.5385C13.1386 11.5385 12.5136 10.9185 12.5136 10.1538C12.5136 9.38901 13.1386 8.76903 13.9096 8.76903C14.6806 8.76903 15.3056 9.38901 15.3056 10.1538C15.3056 10.9185 14.6806 11.5385 13.9096 11.5385ZM17.3067 15.2272C17.2638 15.2613 16.4537 15.8964 15.1017 16.1696L17.1424 18.1759C17.5013 18.5313 17.5018 19.108 17.1434 19.464C16.7851 19.82 16.2038 19.8206 15.8449 19.465L13.8636 17.5512L12.0641 19.4527C11.8839 19.6381 11.6435 19.7313 11.403 19.7313C11.1735 19.7313 10.9438 19.6466 10.7657 19.4762C10.4006 19.127 10.39 18.5504 10.742 18.1883L12.6791 16.1802C11.2892 15.9134 10.4456 15.2618 10.4021 15.2272C10.0065 14.9125 9.94296 14.3392 10.2602 13.9468C10.5775 13.5543 11.1553 13.4913 11.551 13.806C11.5594 13.8127 12.4418 14.4702 13.8635 14.4712C15.2853 14.4702 16.1494 13.8127 16.1578 13.806C16.5535 13.4913 17.1314 13.5543 17.4486 13.9468C17.7659 14.3392 17.7023 14.9125 17.3067 15.2272Z" fill="#2C2F31"/>
<circle cx="13.8004" cy="13.2676" r="13.0725" stroke="#A2A7AA" stroke-width="0.390223"/>
</svg>
