<svg width="28" height="27" viewBox="0 0 28 27" fill="none" xmlns="http://www.w3.org/2000/svg">
<path fill-rule="evenodd" clip-rule="evenodd" d="M19.6901 9.37258C19.2709 9.57758 18.8196 9.71592 18.3464 9.77835C18.829 9.45947 19.2004 8.955 19.3751 8.35267C18.923 8.64793 18.4224 8.86221 17.8888 8.97778C17.4626 8.47753 16.8538 8.16455 16.1807 8.16455C14.8887 8.16455 13.8403 9.31775 13.8403 10.7409C13.8403 10.9434 13.8615 11.1399 13.9014 11.328C11.9567 11.2201 10.2322 10.1951 9.07808 8.63612C8.87672 9.01658 8.76076 9.45947 8.76076 9.93104C8.76076 10.8253 9.17446 11.614 9.80206 12.0755C9.41813 12.0628 9.05771 11.9464 8.74195 11.7541C8.74195 11.7642 8.74195 11.7751 8.74195 11.7861C8.74195 13.0338 9.5482 14.0756 10.6193 14.3127C10.4226 14.3709 10.2158 14.4029 10.0026 14.4029C9.85142 14.4029 9.7049 14.3869 9.5623 14.3566C9.86004 15.3798 10.7243 16.1247 11.7483 16.1458C10.9476 16.8367 9.93839 17.2484 8.84224 17.2484C8.65341 17.2484 8.46694 17.2357 8.28359 17.2121C9.31941 17.9435 10.5495 18.3704 11.8713 18.3704C16.1752 18.3704 18.5289 14.4443 18.5289 11.0395C18.5289 10.9282 18.5274 10.8168 18.5227 10.7063C18.9795 10.3436 19.3767 9.88971 19.6901 9.37258Z" fill="#2C2F31"/>
<circle cx="14.0669" cy="13.2676" r="13.0725" stroke="#A2A7AA" stroke-width="0.390223"/>
</svg>
