<svg width="27" height="27" viewBox="0 0 27 27" fill="none" xmlns="http://www.w3.org/2000/svg">
<path fill-rule="evenodd" clip-rule="evenodd" d="M17.247 13.5418C17.247 13.5418 18.7954 11.382 18.9494 10.6722C19.0006 10.4188 18.8878 10.2767 18.6211 10.2767H17.2778C16.9701 10.2767 16.8573 10.4086 16.765 10.6013C16.765 10.6013 16.0387 12.1315 15.155 13.0957C14.8712 13.4075 14.727 13.5013 14.5704 13.5013C14.4441 13.5013 14.3858 13.3971 14.3858 13.116V10.652C14.3858 10.3072 14.3448 10.2058 14.0577 10.2058H11.9042C11.7401 10.2058 11.6375 10.3001 11.6375 10.4289C11.6375 10.7535 12.14 10.8268 12.14 11.7065V13.5215C12.14 13.8866 12.1195 14.0285 11.9451 14.0285C11.4837 14.0285 10.3864 12.4569 9.77114 10.6722C9.64806 10.3072 9.51474 10.2058 9.1661 10.2058H7.82269C7.62788 10.2058 7.48428 10.3376 7.48428 10.5303C7.48428 10.8852 7.9047 12.5278 9.55581 14.7282C10.6633 16.2087 12.1195 17.0097 13.4321 17.0097C14.232 17.0097 14.4269 16.8779 14.4269 16.5433V15.4076C14.4269 15.1236 14.5397 15.002 14.7037 15.002C14.8883 15.002 15.2141 15.0606 15.9754 15.803C16.8778 16.6548 16.9394 17.0097 17.4316 17.0097H18.9391C19.0929 17.0097 19.2365 16.9387 19.2365 16.6852C19.2365 16.3506 18.7954 15.7524 18.1187 15.0425C17.8417 14.6775 17.3905 14.2821 17.247 14.0996C17.0419 13.8866 17.1034 13.7649 17.247 13.5418Z" fill="#2C2F31"/>
<circle cx="13.2676" cy="13.2676" r="13.0725" stroke="#A2A7AA" stroke-width="0.390223"/>
</svg>
