<svg width="27" height="27" viewBox="0 0 27 27" fill="none" xmlns="http://www.w3.org/2000/svg">
<path fill-rule="evenodd" clip-rule="evenodd" d="M18.6651 9.77513C19.1865 9.90961 19.5976 10.3034 19.738 10.8029C19.9986 11.7154 19.9886 13.6173 19.9886 13.6173C19.9886 13.6173 19.9886 15.5096 19.738 16.4221C19.5976 16.9216 19.1865 17.3154 18.6651 17.4499C17.7126 17.6901 13.9026 17.6901 13.9026 17.6901C13.9026 17.6901 10.1025 17.6901 9.13999 17.4403C8.61861 17.3058 8.20753 16.912 8.06716 16.4125C7.8165 15.5096 7.8165 13.6077 7.8165 13.6077C7.8165 13.6077 7.8165 11.7154 8.06716 10.8029C8.20753 10.3034 8.62864 9.9 9.13999 9.76553C10.0925 9.52539 13.9026 9.52539 13.9026 9.52539C13.9026 9.52539 17.7126 9.52539 18.6651 9.77513ZM15.8183 13.6083L12.6655 15.3565V11.8601L15.8183 13.6083Z" fill="#2C2F31"/>
<circle cx="13.5998" cy="13.2676" r="13.0725" stroke="#A2A7AA" stroke-width="0.390223"/>
</svg>
