<svg width="66" height="88" viewBox="0 0 66 88" fill="none" xmlns="http://www.w3.org/2000/svg">
<path d="M2.04651 33.4438H63.727V85.9264H2.04651V33.4438Z" fill="#FFCD17"/>
<path d="M33.9691 12.8831C23.5809 12.0174 21.7052 23.7043 22.0659 29.6559H12.3268C12.1464 20.0972 12.3266 2.0752 33.9691 2.06202C51.7212 2.0512 55.431 20.4579 55.0702 29.6559H43.708C44.7902 24.4257 44.3574 13.7488 33.9691 12.8831Z" fill="#FFCD17"/>
<rect x="1.5508" y="32.8455" width="62.571" height="53.1025" rx="3.28241" stroke="#39363D" stroke-width="2.52493"/>
<circle cx="33.428" cy="58.8052" r="17.7534" fill="#39363D"/>
<circle cx="33.4279" cy="58.8053" r="11.8356" fill="white"/>
<path fill-rule="evenodd" clip-rule="evenodd" d="M25.789 64.4013C27.7245 62.4103 30.4316 61.1733 33.4277 61.1733C36.4238 61.1733 39.131 62.4103 41.0665 64.4014C39.3433 66.7495 36.5636 68.2739 33.4278 68.2739C30.2919 68.2739 27.5122 66.7495 25.789 64.4013ZM36.9786 55.2553C36.9786 57.2162 35.3889 58.806 33.4279 58.806C31.467 58.806 29.8773 57.2162 29.8773 55.2553C29.8773 53.2943 31.467 51.7046 33.4279 51.7046C35.3889 51.7046 36.9786 53.2943 36.9786 55.2553Z" fill="#39363D"/>
<path d="M24.514 16.2787L23.6533 15.7502L23.6533 15.7502L24.514 16.2787ZM22.2708 29.3882H21.2609C21.2609 29.946 21.7131 30.3982 22.2708 30.3982V29.3882ZM22.7758 29.3882V30.3982C23.3336 30.3982 23.7858 29.946 23.7858 29.3882H22.7758ZM24.9443 16.543L24.0837 16.0145V16.0145L24.9443 16.543ZM41.9116 16.5429L41.051 17.0715V17.0715L41.9116 16.5429ZM44.0799 29.3877H43.07C43.07 29.9455 43.5222 30.3977 44.0799 30.3977V29.3877ZM44.5849 29.3877V30.3977C45.1427 30.3977 45.5949 29.9455 45.5949 29.3877H44.5849ZM42.3419 16.2787L41.4813 16.8072V16.8072L42.3419 16.2787ZM39.3142 13.375L39.7915 12.4849H39.7915L39.3142 13.375ZM27.5418 13.375L27.0645 12.4849L27.5418 13.375ZM54.227 29.3877H53.217C53.217 29.9455 53.6692 30.3977 54.227 30.3977V29.3877ZM50.5584 11.2329L51.419 10.7044L51.419 10.7044L50.5584 11.2329ZM16.2976 11.2329L17.1582 11.7614V11.7614L16.2976 11.2329ZM12.6288 29.3882V30.3982C13.1866 30.3982 13.6387 29.946 13.6387 29.3882H12.6288ZM12.1238 29.3882H11.1138C11.1138 29.946 11.566 30.3982 12.1238 30.3982V29.3882ZM15.8673 10.9686L15.0066 10.44L15.8673 10.9686ZM50.9887 10.9686L51.8493 10.4401V10.4401L50.9887 10.9686ZM54.732 29.3877V30.3977C55.2898 30.3977 55.742 29.9455 55.742 29.3877H54.732ZM23.2808 26.8489C23.2808 22.7715 23.9054 19.1996 25.3746 16.8073L23.6533 15.7502C21.8903 18.621 21.2609 22.6473 21.2609 26.8489H23.2808ZM23.2808 29.3882V26.8489H21.2609V29.3882H23.2808ZM22.7758 28.3782H22.2708V30.3982H22.7758V28.3782ZM23.7858 29.3882V26.8489H21.7659V29.3882H23.7858ZM23.7858 26.8489C23.7858 22.8025 24.4093 19.3442 25.8049 17.0715L24.0837 16.0145C22.3941 18.7657 21.7659 22.6784 21.7659 26.8489H23.7858ZM25.8049 17.0715C26.3675 16.1555 27.1132 15.3239 28.2578 14.7101C29.4111 14.0916 31.0411 13.6562 33.428 13.6562V11.6362C30.798 11.6362 28.8203 12.1164 27.3032 12.93C25.7772 13.7482 24.7895 14.8651 24.0837 16.0145L25.8049 17.0715ZM33.428 13.6562C35.8149 13.6562 37.4449 14.0916 38.5982 14.7101C39.7428 15.3239 40.4884 16.1554 41.051 17.0715L42.7722 16.0144C42.0664 14.865 41.0788 13.7482 39.5528 12.93C38.0357 12.1164 36.0581 11.6362 33.428 11.6362V13.6562ZM41.051 17.0715C42.4466 19.3441 43.07 22.8024 43.07 26.8489H45.0899C45.0899 22.6783 44.4618 18.7656 42.7722 16.0144L41.051 17.0715ZM43.07 26.8489V29.3877H45.0899V26.8489H43.07ZM44.5849 28.3777H44.0799V30.3977H44.5849V28.3777ZM43.575 26.8489V29.3877H45.5949V26.8489H43.575ZM41.4813 16.8072C42.9504 19.1995 43.575 22.7714 43.575 26.8489H45.5949C45.5949 22.6472 44.9656 18.621 43.2026 15.7501L41.4813 16.8072ZM38.8369 14.2651C40.0767 14.9299 40.8829 15.8328 41.4813 16.8072L43.2026 15.7501C42.4609 14.5425 41.4128 13.3543 39.7915 12.4849L38.8369 14.2651ZM33.428 13.1512C35.8758 13.1512 37.5926 13.5978 38.8369 14.2651L39.7915 12.4849C38.1834 11.6226 36.1189 11.1312 33.428 11.1312V13.1512ZM28.0191 14.2651C29.2634 13.5978 30.9803 13.1512 33.428 13.1512V11.1312C30.7372 11.1312 28.6726 11.6226 27.0645 12.4849L28.0191 14.2651ZM25.3746 16.8073C25.973 15.8328 26.7792 14.93 28.0191 14.2651L27.0645 12.4849C25.4432 13.3544 24.395 14.5425 23.6533 15.7502L25.3746 16.8073ZM55.237 29.3877V26.8489H53.217V29.3877H55.237ZM55.237 26.8489C55.237 22.0494 54.5833 15.8571 51.419 10.7044L49.6977 11.7614C52.5686 16.4363 53.217 22.1751 53.217 26.8489H55.237ZM51.419 10.7044C47.9543 5.06243 41.993 1.48915 33.428 1.48915V3.5091C41.3522 3.5091 46.6314 6.76821 49.6977 11.7614L51.419 10.7044ZM33.428 1.48915C24.8631 1.48915 18.9018 5.06241 15.437 10.7043L17.1582 11.7614C20.2247 6.7682 25.5039 3.5091 33.428 3.5091V1.48915ZM15.437 10.7043C12.2725 15.8571 11.6188 22.0494 11.6188 26.8489H13.6387C13.6387 22.175 14.2873 16.4363 17.1582 11.7614L15.437 10.7043ZM11.6188 26.8489V29.3882H13.6387V26.8489H11.6188ZM12.6288 28.3782H12.1238V30.3982H12.6288V28.3782ZM11.1138 26.8489V29.3882H13.1338V26.8489H11.1138ZM15.0066 10.44C11.7689 15.7122 11.1138 22.0179 11.1138 26.8489H13.1338C13.1338 22.1436 13.7836 16.2915 16.7279 11.4971L15.0066 10.44ZM33.428 0.984168C24.703 0.984168 18.5711 4.63586 15.0066 10.44L16.7279 11.4971C19.8939 6.34179 25.3436 3.00411 33.428 3.00411V0.984168ZM51.8493 10.4401C48.2849 4.63588 42.1531 0.984168 33.428 0.984168V3.00411C41.5124 3.00411 46.9621 6.3418 50.128 11.4972L51.8493 10.4401ZM55.742 26.8489C55.742 22.018 55.087 15.7123 51.8493 10.4401L50.128 11.4972C53.0723 16.2915 53.722 22.1437 53.722 26.8489H55.742ZM55.742 29.3877V26.8489H53.722V29.3877H55.742ZM54.732 28.3777H54.227V30.3977H54.732V28.3777Z" fill="#39363D"/>
</svg>
