<svg width="98" height="110" viewBox="0 0 98 110" fill="none" xmlns="http://www.w3.org/2000/svg">
<path d="M2.25129 2.325H78.5009V108.175H2.25129V2.325Z" fill="#FFCD17" stroke="white" stroke-width="3.03818"/>
<circle cx="24.9834" cy="25.7571" r="12.6307" fill="#39363D"/>
<path fill-rule="evenodd" clip-rule="evenodd" d="M17.5554 31.6866C19.4756 29.7109 22.1616 28.4834 25.1343 28.4834C28.1069 28.4834 30.7929 29.7108 32.713 31.6864C31.0036 34.0166 28.2456 35.5293 25.1342 35.5293C22.0228 35.5293 19.2648 34.0167 17.5554 31.6866ZM28.6576 22.6143C28.6576 24.5597 27.0805 26.1368 25.1351 26.1368C23.1897 26.1368 21.6126 24.5597 21.6126 22.6143C21.6126 20.6689 23.1897 19.0918 25.1351 19.0918C27.0805 19.0918 28.6576 20.6689 28.6576 22.6143Z" fill="white"/>
<path d="M95.8095 75.4492C95.8095 86.2204 86.8871 95.0053 75.8144 95.0053C64.7417 95.0053 55.8192 86.2204 55.8192 75.4492C55.8192 64.6781 64.7417 55.8931 75.8144 55.8931C86.8871 55.8931 95.8095 64.6781 95.8095 75.4492Z" fill="white" stroke="#39363D" stroke-width="3.03818"/>
<path d="M85.0346 71.9369L72.4773 83.3526L65.7157 77.2057L68.6135 74.5713L72.4773 78.0838L82.1367 69.3025L85.0346 71.9369Z" fill="#FFCD17"/>
<rect x="12.0034" y="46.9387" width="42.2868" height="3.7001" fill="#39363D"/>
<rect x="12.0034" y="55.925" width="42.2868" height="3.7001" fill="#39363D"/>
<rect x="12.0034" y="64.9099" width="21.1434" height="3.7001" fill="#39363D"/>
</svg>
