<svg width="108" height="109" viewBox="0 0 108 109" fill="none" xmlns="http://www.w3.org/2000/svg">
<ellipse cx="55.0576" cy="102.432" rx="20.4064" ry="3.82621" fill="black" fill-opacity="0.055"/>
<path fill-rule="evenodd" clip-rule="evenodd" d="M53.8999 91.075L51.302 95.8342C52.5341 95.9788 53.7876 96.0532 55.0585 96.0532C72.6681 96.0532 86.9435 81.7777 86.9435 64.1681C86.9435 49.8094 77.4524 37.6675 64.4015 33.6738L63.5476 41.3005C62.7207 48.1244 63.9611 54.6807 66.4419 61.1032C67.9842 65.0246 69.8396 69.5159 71.3198 73.0992L71.32 73.0995C72.6176 76.2407 73.627 78.6841 73.8845 79.4341C74.1601 80.237 74.1601 80.906 74.1601 81.575C74.0223 83.3144 73.3332 84.251 72.0928 85.5891C70.7145 87.1947 68.5093 89.7369 67.1311 91.075C66.0285 92.1454 64.2367 93.8848 62.445 92.2792C60.5155 90.6735 61.4803 88.8003 62.5829 87.5961C63.6508 86.3865 64.5463 85.4001 65.5663 84.2766L65.5664 84.2765C66.1261 83.6601 66.7231 83.0024 67.4067 82.244C67.8202 81.8426 67.958 81.0397 67.5445 80.3707C66.9932 79.3002 65.615 76.6243 65.0637 75.6877C64.3746 74.3496 63.1342 73.8144 61.6181 74.3496L58.9994 75.0187C57.4833 75.5539 56.6564 77.1595 56.5186 78.7651L55.416 86.7933C55.2781 88.3989 54.7268 89.7369 53.8999 91.075ZM23.1734 64.1681C23.1734 78.2675 32.3249 90.2295 45.012 94.4381L47.5603 88.9351C48.2494 87.597 48.8007 85.59 48.9385 84.1182C48.9385 84.1182 49.7655 74.752 49.9033 71.6745C49.9033 69.5337 47.9737 64.7168 47.009 62.4422C45.3438 58.7779 42.5161 57.631 38.31 55.925L38.3099 55.925C37.2941 55.513 36.1979 55.0684 35.0182 54.5478C32.8269 53.6229 28.4621 51.9946 25.976 51.0774C24.1754 55.0713 23.1734 59.5027 23.1734 64.1681ZM33.6996 48.1207C31.8644 47.4203 30.2595 46.8079 28.69 46.2361C31.4326 42.2111 35.0726 38.8466 39.3222 36.4305C38.5639 37.4667 38.1254 38.6923 38.1254 40.0058C38.1254 43.7268 41.6446 46.7432 45.9857 46.7432C50.3269 46.7432 53.8461 43.7268 53.8461 40.0058C53.8461 36.5684 50.8429 33.7323 46.9629 33.3199C49.548 32.6433 52.2612 32.2831 55.0585 32.2831C56.27 32.2831 57.4657 32.3506 58.6421 32.4822C58.4556 33.8736 58.2519 35.3821 58.0539 36.8481C57.6134 40.1105 57.2014 43.1626 57.0702 44.245C56.577 47.716 54.6503 48.7245 52.6709 49.7605C52.4375 49.8827 52.2033 50.0053 51.9707 50.1323L51.7772 50.2304C48.7094 51.786 46.4996 52.9066 41.9095 51.2028C38.5783 49.9824 35.9637 48.9847 33.6997 48.1207L33.6996 48.1207Z" fill="#3E3E3E"/>
<mask id="path-3-outside-1_3_786" maskUnits="userSpaceOnUse" x="21.7401" y="27.0132" width="54" height="75" fill="black">
<rect fill="white" x="21.7401" y="27.0132" width="54" height="75"/>
<path fill-rule="evenodd" clip-rule="evenodd" d="M45.3935 33.0498C41.3966 33.4513 38.3644 36.9301 38.7779 40.8104C39.1914 44.6907 42.7748 47.5005 46.7717 47.2329C50.7686 46.8315 53.8008 43.3526 53.3873 39.4724C52.9738 35.5921 49.3904 32.6484 45.3935 33.0498Z"/>
</mask>
<path d="M48.3633 100.128C48.1662 100.466 48.2809 100.9 48.6193 101.098C48.9578 101.295 49.392 101.18 49.5891 100.841L48.3633 100.128ZM54.3513 91.2522L53.7481 90.8794C53.7448 90.8847 53.7416 90.89 53.7385 90.8954L54.3513 91.2522ZM55.8674 86.9706L55.1648 86.8741C55.1632 86.886 55.1618 86.8979 55.1608 86.9099L55.8674 86.9706ZM56.97 78.9424L57.6726 79.0389C57.6743 79.027 57.6756 79.0151 57.6766 79.0031L56.97 78.9424ZM59.4509 75.1959L59.2753 74.5088C59.2549 74.514 59.2347 74.5202 59.2148 74.5272L59.4509 75.1959ZM62.0695 74.5269L62.2451 75.2141C62.2655 75.2088 62.2857 75.2027 62.3056 75.1957L62.0695 74.5269ZM65.5152 75.865L64.8847 76.1897C64.8908 76.2015 64.8972 76.2132 64.904 76.2247L65.5152 75.865ZM67.996 80.548L67.3655 80.8727C67.3739 80.8891 67.383 80.9052 67.3927 80.9208L67.996 80.548ZM67.8582 82.4213L67.3642 81.9124C67.3529 81.9234 67.3419 81.9348 67.3314 81.9465L67.8582 82.4213ZM66.018 84.4537L65.4929 83.9769L66.018 84.4537ZM63.0343 87.7734L63.5575 88.2524L63.566 88.2428L63.0343 87.7734ZM62.8965 92.4565L63.3698 91.9283C63.3633 91.9225 63.3568 91.9169 63.3501 91.9113L62.8965 92.4565ZM67.5825 91.2522L68.0765 91.7611L67.5825 91.2522ZM72.5442 85.7663L72.0241 85.2842C72.018 85.2908 72.012 85.2976 72.0061 85.3044L72.5442 85.7663ZM74.6116 81.7523L75.3186 81.8083C75.3201 81.7896 75.3208 81.771 75.3208 81.7523H74.6116ZM74.3359 79.6114L73.6652 79.8417L73.6652 79.8417L74.3359 79.6114ZM71.7714 73.2768L72.4269 73.006L71.7714 73.2768ZM66.8934 61.2805L66.2318 61.536L66.2334 61.5401L66.8934 61.2805ZM63.9991 41.4777L64.7032 41.5631L64.7039 41.5566L63.9991 41.4777ZM66.0821 29.2468C66.1257 28.8576 65.8455 28.5067 65.4562 28.4631C65.067 28.4195 64.7161 28.6997 64.6725 29.089L66.0821 29.2468ZM48.0119 89.1123L47.3814 88.7876L47.3781 88.7942L48.0119 89.1123ZM49.3902 84.2954L50.0963 84.3616L50.0966 84.3578L49.3902 84.2954ZM50.355 71.8518L51.0635 71.8835C51.0639 71.873 51.0642 71.8624 51.0642 71.8518H50.355ZM47.4606 62.6194L48.1135 62.3425C48.1112 62.337 48.1088 62.3315 48.1063 62.326L47.4606 62.6194ZM38.7616 56.1023L38.4951 56.7595L38.7616 56.1023ZM35.4699 54.7251L35.7562 54.0762L35.7457 54.0717L35.4699 54.7251ZM24.5817 50.5772L24.8243 49.9108L24.8178 49.9085L24.5817 50.5772ZM23.0657 47.0984L22.4015 46.8496V46.8496L23.0657 47.0984ZM26.9247 45.6265L26.668 46.2876C26.6765 46.2909 26.6851 46.2941 26.6938 46.2971L26.9247 45.6265ZM34.1513 48.2979L34.4041 47.6353L34.1513 48.2979ZM42.3611 51.38L42.6079 50.7152L42.6051 50.7141L42.3611 51.38ZM52.2288 50.4077L51.9081 49.7752L51.9081 49.7752L52.2288 50.4077ZM52.4223 50.3096L52.7428 50.9423C52.7493 50.939 52.7558 50.9356 52.7622 50.9321L52.4223 50.3096ZM53.1226 49.9378L52.7937 49.3095H52.7937L53.1226 49.9378ZM57.5218 44.4223L58.224 44.5221C58.2247 44.5173 58.2253 44.5125 58.2259 44.5076L57.5218 44.4223ZM58.5056 37.0253L59.2084 37.1202V37.1202L58.5056 37.0253ZM60.4309 27.9178C60.4789 27.5291 60.2028 27.175 59.814 27.127C59.4253 27.0789 59.0712 27.3551 59.0232 27.7438L60.4309 27.9178ZM42.1407 99.2308C41.9651 99.5809 42.1064 100.007 42.4565 100.183C42.8066 100.358 43.2328 100.217 43.4085 99.867L42.1407 99.2308ZM49.5891 100.841L54.9642 91.6091L53.7385 90.8954L48.3633 100.128L49.5891 100.841ZM54.9546 91.6251C55.822 90.2216 56.4242 88.7772 56.574 87.0312L55.1608 86.9099C55.035 88.3751 54.5346 89.6068 53.7481 90.8794L54.9546 91.6251ZM56.57 87.0671L57.6726 79.0389L56.2674 78.8459L55.1648 86.8741L56.57 87.0671ZM57.6766 79.0031C57.8015 77.5479 58.5356 76.2711 59.687 75.8647L59.2148 74.5272C57.334 75.1912 56.4142 77.1256 56.2634 78.8818L57.6766 79.0031ZM59.6264 75.8831L62.2451 75.2141L61.894 73.8398L59.2753 74.5088L59.6264 75.8831ZM62.3056 75.1957C62.934 74.9738 63.4425 74.9935 63.8392 75.152C64.2369 75.311 64.6025 75.6418 64.8847 76.1897L66.1457 75.5402C65.7387 74.7501 65.1395 74.1443 64.3657 73.8349C63.5909 73.5252 62.7211 73.5448 61.8334 73.8582L62.3056 75.1957ZM64.904 76.2247C65.4422 77.1391 66.8079 79.7901 67.3655 80.8727L68.6265 80.2233C68.0814 79.1649 66.6907 76.464 66.1263 75.5052L64.904 76.2247ZM67.3927 80.9208C67.6445 81.3284 67.5211 81.7601 67.3642 81.9124L68.3522 82.9301C69.0222 82.2796 69.1744 81.1057 68.5993 80.1751L67.3927 80.9208ZM67.3314 81.9465C66.6488 82.7038 66.0526 83.3605 65.4929 83.9769L66.5431 84.9304C67.1027 84.314 67.7005 83.6555 68.385 82.8961L67.3314 81.9465ZM65.4929 83.9769C64.473 85.1003 63.5744 86.0902 62.5027 87.304L63.566 88.2428C64.6303 87.0373 65.5228 86.0542 66.5431 84.9304L65.4929 83.9769ZM62.5112 87.2944C61.9222 87.9378 61.2999 88.8301 61.129 89.8468C60.9464 90.9325 61.2979 92.0489 62.4429 93.0016L63.3501 91.9113C62.5655 91.2584 62.4347 90.6353 62.5277 90.082C62.6324 89.4596 63.0439 88.8131 63.5574 88.2523L62.5112 87.2944ZM62.4232 92.9846C62.9675 93.4724 63.5513 93.738 64.1553 93.8015C64.7512 93.8642 65.3061 93.7241 65.7913 93.5035C66.7332 93.0755 67.544 92.278 68.0765 91.7611L67.0885 90.7434C66.5184 91.2969 65.8821 91.9043 65.2045 92.2122C64.8801 92.3596 64.5821 92.4202 64.3037 92.3909C64.0334 92.3625 63.7214 92.2434 63.3698 91.9283L62.4232 92.9846ZM68.0765 91.7611C69.4828 90.3959 71.7107 87.8262 73.0824 86.2283L72.0061 85.3044C70.6212 86.9177 68.4388 89.4326 67.0885 90.7434L68.0765 91.7611ZM73.0643 86.2485C73.6891 85.5745 74.2221 84.9533 74.611 84.2548C75.0092 83.5397 75.2423 82.7707 75.3186 81.8083L73.9046 81.6962C73.843 82.4733 73.6627 83.0423 73.3717 83.5648C73.0715 84.1041 72.6397 84.6201 72.0241 85.2842L73.0643 86.2485ZM75.3208 81.7523V81.7522H73.9024V81.7523H75.3208ZM75.3208 81.7522C75.3208 81.0827 75.3246 80.3069 75.0067 79.3811L73.6652 79.8417C73.8986 80.5216 73.9024 81.0837 73.9024 81.7522H75.3208ZM75.0067 79.3811C74.7399 78.6042 73.717 76.1291 72.4269 73.006L71.1159 73.5475C72.4211 76.7069 73.4169 79.1186 73.6652 79.8417L75.0067 79.3811ZM72.4269 73.006C70.9461 69.4214 69.0931 64.9358 67.5534 61.0209L66.2334 61.5401C67.7783 65.4682 69.6362 69.9654 71.1159 73.5475L72.4269 73.006ZM67.555 61.0249C65.1042 54.6803 63.8936 48.243 64.7031 41.563L63.295 41.3924C62.4506 48.3603 63.7209 55.0356 66.2318 61.536L67.555 61.0249ZM64.7039 41.5566L66.0821 29.2468L64.6725 29.089L63.2943 41.3988L64.7039 41.5566ZM48.6424 89.437C49.3769 88.011 49.9508 85.9149 50.0963 84.3616L48.6841 84.2293C48.5539 85.6196 48.0252 87.5376 47.3814 88.7876L48.6424 89.437ZM49.3902 84.2954C50.0966 84.3578 50.0966 84.3578 50.0967 84.3577C50.0967 84.3576 50.0967 84.3575 50.0967 84.3574C50.0967 84.3571 50.0967 84.3566 50.0968 84.3561C50.0969 84.3549 50.097 84.3532 50.0972 84.3509C50.0976 84.3464 50.0982 84.3396 50.099 84.3307C50.1006 84.3128 50.1029 84.2863 50.106 84.2515C50.1121 84.1821 50.1211 84.0798 50.1325 83.9487C50.1554 83.6863 50.1883 83.3081 50.2281 82.8447C50.3079 81.9179 50.4156 80.65 50.5277 79.2857C50.7514 76.5633 50.9938 73.4382 51.0635 71.8835L49.6465 71.8201C49.5783 73.3429 49.3383 76.4396 49.1141 79.1696C49.0022 80.5316 48.8946 81.7975 48.815 82.7231C48.7751 83.1859 48.7423 83.5634 48.7195 83.8253C48.708 83.9562 48.6991 84.0582 48.693 84.1275C48.69 84.1621 48.6877 84.1885 48.6861 84.2063C48.6853 84.2151 48.6847 84.2219 48.6843 84.2263C48.6841 84.2286 48.684 84.2303 48.6839 84.2314C48.6838 84.232 48.6838 84.2324 48.6838 84.2327C48.6838 84.2328 48.6837 84.2329 48.6837 84.233C48.6837 84.233 48.6837 84.2331 49.3902 84.2954ZM51.0642 71.8518C51.0642 70.6456 50.5387 68.7982 49.9404 67.0555C49.3296 65.2767 48.5988 63.4866 48.1135 62.3425L46.8077 62.8964C47.2873 64.027 48.0036 65.7826 48.5988 67.5161C49.2064 69.2858 49.6458 70.9172 49.6458 71.8518H51.0642ZM48.1063 62.326C46.3081 58.369 43.1982 57.1364 39.0282 55.4451L38.4951 56.7595C42.7374 58.4801 45.2828 59.5413 46.815 62.9129L48.1063 62.326ZM39.0282 55.4451C38.0115 55.0327 36.9247 54.5919 35.7562 54.0763L35.1836 55.3739C36.3744 55.8994 37.4801 56.3478 38.4951 56.7595L39.0282 55.4451ZM35.7457 54.0717C34.145 53.3961 31.4094 52.3541 29.0855 51.4851C27.9211 51.0497 26.856 50.6562 26.082 50.3716C25.695 50.2292 25.3807 50.1141 25.1631 50.0345C25.0543 49.9947 24.9697 49.9638 24.9123 49.9429C24.8835 49.9324 24.8616 49.9244 24.8468 49.919C24.8394 49.9163 24.8338 49.9143 24.8301 49.9129C24.8282 49.9122 24.8268 49.9117 24.8258 49.9113C24.8253 49.9112 24.825 49.911 24.8247 49.9109C24.8246 49.9109 24.8245 49.9109 24.8244 49.9108C24.8244 49.9108 24.8243 49.9108 24.5817 50.5772C24.3391 51.2436 24.3391 51.2436 24.3392 51.2437C24.3392 51.2437 24.3393 51.2437 24.3394 51.2438C24.3397 51.2438 24.34 51.244 24.3405 51.2441C24.3414 51.2445 24.3428 51.245 24.3446 51.2456C24.3483 51.247 24.3538 51.249 24.3611 51.2517C24.3757 51.257 24.3975 51.2649 24.4261 51.2754C24.4832 51.2962 24.5675 51.327 24.676 51.3666C24.8929 51.4459 25.2063 51.5608 25.5924 51.7028C26.3647 51.9868 27.4273 52.3794 28.5887 52.8137C30.9164 53.6841 33.6248 54.7161 35.1941 55.3785L35.7457 54.0717ZM24.8178 49.9085C24.2365 49.7032 23.8791 49.3377 23.7029 48.9157C23.5233 48.4858 23.5083 47.9384 23.7298 47.3471L22.4015 46.8496C22.0717 47.7302 22.0567 48.6546 22.394 49.4623C22.7346 50.278 23.4109 50.916 24.3456 51.246L24.8178 49.9085ZM23.7298 47.3471C23.9152 46.8522 24.3451 46.4783 24.9174 46.2799C25.4945 46.0798 26.1476 46.0855 26.668 46.2876L27.1815 44.9654C26.3237 44.6323 25.3228 44.6381 24.4528 44.9397C23.5779 45.2431 22.7674 45.8727 22.4015 46.8496L23.7298 47.3471ZM26.6938 46.2971C29.005 47.0932 31.1958 47.9292 33.8984 48.9605L34.4041 47.6353C31.7056 46.6056 29.4928 45.7611 27.1557 44.956L26.6938 46.2971ZM33.8984 48.9605C36.1627 49.8246 38.7812 50.8238 42.1172 52.046L42.6051 50.7141C39.2787 49.4955 36.6679 48.4992 34.4041 47.6353L33.8984 48.9605ZM42.1143 52.0449C44.4979 52.9297 46.3265 53.1027 47.9869 52.8149C49.6194 52.5321 51.0337 51.8089 52.5496 51.0402L51.9081 49.7752C50.3561 50.5621 49.1317 51.177 47.7448 51.4174C46.3858 51.6529 44.8145 51.5342 42.6079 50.7152L42.1143 52.0449ZM52.5496 51.0402C52.6137 51.0077 52.6781 50.9751 52.7428 50.9423L52.1019 49.6769C52.0368 49.7099 51.9722 49.7427 51.9081 49.7752L52.5496 51.0402ZM52.7622 50.9321C52.9885 50.8085 53.2171 50.6888 53.4515 50.5662L52.7937 49.3095C52.5612 49.4312 52.3215 49.5566 52.0824 49.6872L52.7622 50.9321ZM53.4515 50.5662C54.4251 50.0565 55.5059 49.4973 56.3887 48.5868C57.2952 47.6519 57.9588 46.3888 58.224 44.5221L56.8197 44.3226C56.5918 45.9267 56.0454 46.9033 55.3704 47.5994C54.6717 48.32 53.7994 48.783 52.7937 49.3095L53.4515 50.5662ZM58.2259 44.5076C58.3563 43.4314 58.7674 40.3865 59.2084 37.1202L57.8028 36.9304C57.3628 40.189 56.9497 43.2483 56.8178 44.337L58.2259 44.5076ZM59.2084 37.1202C59.6932 33.5298 60.2136 29.6761 60.4309 27.9178L59.0232 27.7438C58.8071 29.4919 58.2883 33.3347 57.8028 36.9304L59.2084 37.1202ZM43.4085 99.867L48.6458 89.4304L47.3781 88.7942L42.1407 99.2308L43.4085 99.867ZM38.7779 40.8104L37.3675 40.9607L38.7779 40.8104ZM45.3935 33.0498L45.2517 31.6385L45.3935 33.0498ZM46.7717 47.2329L46.8665 48.6482C46.8822 48.6471 46.8978 48.6458 46.9135 48.6442L46.7717 47.2329ZM53.3873 39.4724L51.9769 39.6227L53.3873 39.4724ZM40.1883 40.6601C39.8658 37.6334 42.2479 34.7913 45.5352 34.4612L45.2517 31.6385C40.5452 32.1112 36.863 36.2269 37.3675 40.9607L40.1883 40.6601ZM46.677 45.8177C43.3718 46.039 40.514 43.7168 40.1883 40.6601L37.3675 40.9607C37.8687 45.6645 42.1778 48.9621 46.8665 48.6482L46.677 45.8177ZM51.9769 39.6227C52.2994 42.6494 49.9173 45.4915 46.63 45.8216L46.9135 48.6442C51.6199 48.1716 55.3022 44.0559 54.7977 39.3221L51.9769 39.6227ZM45.5352 34.4612C48.7615 34.1371 51.6466 36.5235 51.9769 39.6227L54.7977 39.3221C54.301 34.6607 50.0193 31.1597 45.2517 31.6385L45.5352 34.4612Z" fill="black" mask="url(#path-3-outside-1_3_786)"/>
<path d="M71.0285 19.1355L64.6886 22.3467C63.9995 22.6143 63.3103 22.4805 62.8969 21.8115L55.5921 8.02986C55.3165 7.36085 55.4543 6.69184 56.1434 6.29043L62.4834 3.07917C63.1725 2.81157 63.8616 2.94537 64.2751 3.61438L71.5798 17.396C71.8555 18.065 71.5798 18.8679 71.0285 19.1355Z" fill="white" stroke="black" stroke-width="1.41841"/>
<path d="M10.3583 63.2279L9.81057 63.8362L10.3583 63.2279L14.1259 66.6203L18.5165 64.0854C19.4615 63.5398 20.5527 64.5222 20.1088 65.5191L18.0467 70.1507L21.8144 73.543C22.6253 74.2732 22.0281 75.6146 20.9428 75.5005L15.9008 74.9706L13.8387 79.6021M10.3583 63.2279L13.8387 79.6021M10.3583 63.2279C9.54729 62.4977 8.27571 63.2319 8.5026 64.2993L9.55667 69.2583L5.16608 71.7932C4.22101 72.3389 4.52629 73.7751 5.61158 73.8891L10.6536 74.4191L11.7077 79.3781C11.9346 80.4455 13.3948 80.599 13.8387 79.6021M10.3583 63.2279L13.8387 79.6021" fill="#FFCD17" stroke="black" stroke-width="1.637"/>
<path d="M17.6767 16.4117C17.0824 15.4964 15.6641 15.8765 15.607 16.9662L15.3417 22.0291L10.4446 23.3413C9.3905 23.6237 9.31367 25.09 10.3324 25.4811L15.0655 27.2979L14.8002 32.3608C14.7431 33.4506 16.1139 33.9768 16.8006 33.1287L19.9912 29.1887L24.7242 31.0056C25.743 31.3966 26.6671 30.2556 26.0727 29.3404L23.3115 25.0884L26.502 21.1484C27.1888 20.3004 26.3891 19.069 25.335 19.3514L20.4379 20.6636L17.6767 16.4117Z" fill="#FFCD17" stroke="black" stroke-width="1.637"/>
<path d="M95.6989 26.0679C95.6418 24.9781 94.2235 24.5981 93.6292 25.5133L90.8679 29.7652L85.9709 28.4531C84.9168 28.1706 84.1171 29.402 84.8039 30.2501L87.9944 34.1901L85.2332 38.442C84.6388 39.3572 85.5629 40.4983 86.5816 40.1072L86.2883 39.3431L86.5816 40.1072L91.3147 38.2904L94.5053 42.2303C95.192 43.0784 96.5628 42.5522 96.5057 41.4625L96.2403 36.3996L100.973 34.5827C101.992 34.1916 101.915 32.7254 100.861 32.4429L95.9642 31.1308L95.6989 26.0679Z" fill="#FFCD17" stroke="black" stroke-width="1.637"/>
<path d="M91.3509 57.421C91.5778 56.3536 90.3062 55.6194 89.4952 56.3496L85.7276 59.742L81.337 57.2071C80.3919 56.6615 79.3008 57.6439 79.7446 58.6409L81.8067 63.2724L78.0391 66.6647C77.2281 67.3949 77.8254 68.7363 78.9106 68.6222L83.9527 68.0923L86.0148 72.7238C86.4586 73.7207 87.9189 73.5672 88.1458 72.4998L89.1998 67.5408L94.2419 67.0108C95.3272 66.8968 95.6325 65.4606 94.6874 64.9149L90.2968 62.38L91.3509 57.421Z" fill="#FFCD17" stroke="black" stroke-width="1.637"/>
</svg>
