<svg width="93" height="61" viewBox="0 0 93 61" fill="none" xmlns="http://www.w3.org/2000/svg">
<path d="M1.33766 56.6924C1.33766 57.9817 2.38284 59.0268 3.67211 59.0268L88.8797 59.0268C90.1689 59.0268 91.2141 57.9817 91.2141 56.6924L91.2141 4.16719C91.2141 2.87791 90.1689 1.83274 88.8797 1.83274L3.67211 1.83274C2.38282 1.83274 1.33765 2.87792 1.33765 4.1672L1.33766 56.6924Z" fill="white" stroke="#39363D" stroke-width="2.33445"/>
<rect x="7.17407" y="7.66821" width="12.8395" height="12.8395" fill="white"/>
<rect x="7.17407" y="7.66821" width="12.8395" height="12.8395" fill="#3E3E3E"/>
<rect x="7.17407" y="7.66821" width="12.8395" height="12.8395" stroke="#39363D" stroke-width="1.60431"/>
<rect x="23.5148" y="7.66785" width="12.8395" height="12.8395" stroke="#39363D" stroke-width="1.60431"/>
<rect x="39.8558" y="7.66785" width="12.8395" height="12.8395" fill="white"/>
<rect x="39.8558" y="7.66785" width="12.8395" height="12.8395" fill="#3E3E3E"/>
<rect x="39.8558" y="7.66785" width="12.8395" height="12.8395" stroke="#39363D" stroke-width="1.60431"/>
<rect x="56.1971" y="7.66785" width="12.8395" height="12.8395" stroke="#39363D" stroke-width="1.60431"/>
<rect x="72.5381" y="7.66785" width="12.8395" height="12.8395" stroke="#39363D" stroke-width="1.60431"/>
<rect x="7.17358" y="24.0092" width="12.8395" height="12.8395" stroke="#39363D" stroke-width="1.60431"/>
<rect x="23.5145" y="24.0084" width="12.8395" height="12.8395" stroke="#39363D" stroke-width="1.60431"/>
<rect x="39.8555" y="24.0084" width="12.8395" height="12.8395" fill="white"/>
<rect x="39.8555" y="24.0084" width="12.8395" height="12.8395" fill="#3E3E3E"/>
<rect x="39.8555" y="24.0084" width="12.8395" height="12.8395" stroke="#39363D" stroke-width="1.60431"/>
<rect x="56.1971" y="24.0084" width="12.8395" height="12.8395" stroke="#39363D" stroke-width="1.60431"/>
<rect x="72.5381" y="24.0084" width="12.8395" height="12.8395" stroke="#39363D" stroke-width="1.60431"/>
<rect x="7.17358" y="40.3501" width="12.8395" height="12.8395" stroke="#39363D" stroke-width="1.60431"/>
<rect x="23.5145" y="40.3502" width="12.8395" height="12.8395" stroke="#39363D" stroke-width="1.60431"/>
<rect x="39.8558" y="40.3502" width="12.8395" height="12.8395" stroke="#39363D" stroke-width="1.60431"/>
<rect x="56.1971" y="40.3502" width="12.8395" height="12.8395" stroke="#39363D" stroke-width="1.60431"/>
<rect x="72.5381" y="40.3502" width="12.8395" height="12.8395" fill="white"/>
<rect x="72.5381" y="40.3502" width="12.8395" height="12.8395" fill="#3E3E3E"/>
<rect x="72.5381" y="40.3502" width="12.8395" height="12.8395" stroke="#39363D" stroke-width="1.60431"/>
<path d="M9.508 10.0022L17.6786 18.1728M9.508 18.1728L17.6786 10.0022" stroke="#FFCD17" stroke-width="3.50168" stroke-linecap="round"/>
<path d="M42.1903 10.0022L50.3609 18.1728M42.1903 18.1728L50.3609 10.0022" stroke="#FFCD17" stroke-width="3.50168" stroke-linecap="round"/>
<path d="M42.1903 26.3435L50.3609 34.5141M42.1903 34.5141L50.3609 26.3435" stroke="#FFCD17" stroke-width="3.50168" stroke-linecap="round"/>
<path d="M74.8726 42.6848L83.0432 50.8554M74.8726 50.8554L83.0432 42.6848" stroke="#FFCD17" stroke-width="3.50168" stroke-linecap="round"/>
</svg>
